<?xml version="1.0" encoding="UTF-8"?>
<svg width="120px" height="25px" viewBox="0 0 120 25" version="1.1" xmlns="http://www.w3.org/2000/svg" xmlns:xlink="http://www.w3.org/1999/xlink">
    <!-- Generator: Sketch 51.2 (57519) - http://www.bohemiancoding.com/sketch -->
    <title>Fill 1</title>
    <desc>Created with Sketch.</desc>
    <defs>
        <linearGradient x1="0%" y1="0%" x2="100%" y2="100%" id="linearGradient-1">
            <stop stop-color="#EECC6A" offset="0%"></stop>
            <stop stop-color="#DE7A7A" offset="100%"></stop>
        </linearGradient>
    </defs>
    <g id="Landing-page" stroke="none" stroke-width="1" fill="none" fill-rule="evenodd">
        <g id="1-Landing" transform="translate(-101.000000, -90.000000)" fill="url(#linearGradient-1)">
            <path d="M128.873323,90 C127.24923,90 125.932604,91.3166258 125.932604,92.9407189 L125.932604,94.614784 C125.932604,96.23853 127.24923,97.5555029 128.873323,97.5555029 L130.547388,97.5555029 C132.171481,97.5555029 133.48776,96.23853 133.48776,94.614784 L133.48776,92.9407189 C133.48776,91.3166258 132.171481,90 130.547388,90 L128.873323,90 Z M110.571391,90 C109.875252,90 109.310984,90.5646152 109.310984,91.2607543 L109.310984,96.2944016 C109.310984,96.9908876 109.875252,97.5555029 110.571391,97.5555029 L115.605732,97.5555029 C116.301871,97.5555029 116.86614,96.9908876 116.86614,96.2944016 L116.86614,91.2607543 C116.86614,90.5646152 116.301871,90 115.605732,90 L110.571391,90 Z M217.591834,90.2266096 L217.591834,100.045779 C216.348431,98.5240592 214.590732,97.7626788 212.318043,97.7626788 C210.089079,97.7626788 208.245317,98.5507804 206.787798,100.126289 C205.330279,101.701798 204.601172,103.668409 204.601172,106.026467 C204.601172,108.384525 205.330279,110.34593 206.787798,111.910681 C208.245317,113.475432 210.089079,114.257981 212.318043,114.257981 C214.78368,114.257981 216.627095,113.390063 217.848982,111.653533 L217.848982,113.904359 L221,113.904359 L221,90.2266096 L217.591834,90.2266096 Z M209.42452,109.724055 C208.502812,108.759663 208.041612,107.51626 208.041612,105.994193 C208.041612,104.493989 208.502812,103.260997 209.42452,102.296952 C210.346227,101.332213 211.503914,100.849497 212.897233,100.849497 C214.183321,100.849497 215.297976,101.294734 216.241199,102.184168 C217.184422,103.073602 217.655687,104.354484 217.655687,106.026467 C217.655687,107.719618 217.189975,109.000847 216.257163,109.868765 C215.325044,110.737031 214.204836,111.171163 212.897233,111.171163 C211.503914,111.171163 210.346227,110.689141 209.42452,109.724055 Z M197.978134,113.904359 L201.354374,113.904359 L201.354374,90.2266096 L197.978134,90.2266096 L197.978134,113.904359 Z M181.660164,100.158216 C180.084655,101.755241 179.296553,103.71144 179.296553,106.026467 C179.296553,108.363009 180.100618,110.319208 181.708748,111.894717 C183.315836,113.470226 185.341788,114.257981 187.785562,114.257981 C190.186305,114.257981 192.287215,113.411232 194.087599,111.717733 L192.480163,109.402706 C191.065675,110.646109 189.532851,111.267637 187.881689,111.267637 C186.509886,111.267637 185.363304,110.90291 184.441597,110.174497 C183.519542,109.445738 182.951804,108.427209 182.73734,107.119606 L194.505768,107.119606 C194.6772,106.369331 194.763263,105.662087 194.763263,104.997527 C194.763263,102.91848 194.071635,101.192708 192.689074,99.8205574 C191.306513,98.4491011 189.564777,97.7626788 187.464214,97.7626788 C185.170356,97.7626788 183.235673,98.5615383 181.660164,100.158216 Z M184.425633,101.669525 C185.250867,100.973039 186.220464,100.624622 187.33512,100.624622 C188.471638,100.624622 189.425619,100.973039 190.19741,101.669525 C190.968854,102.366358 191.365508,103.304029 191.386676,104.483231 L182.80154,104.483231 C183.059035,103.304029 183.6004,102.366358 184.425633,101.669525 Z M165.053118,100.238727 C164.045348,98.5882595 162.448323,97.7626788 160.262044,97.7626788 C158.353735,97.7626788 156.832015,98.3845538 155.696191,99.6279566 L155.696191,98.1166478 L152.544826,98.1166478 L152.544826,113.904359 L155.921065,113.904359 L155.921065,104.515158 C155.921065,103.422018 156.242414,102.53779 156.885805,101.86282 C157.528848,101.187502 158.36484,100.849497 159.393779,100.849497 C160.401202,100.849497 161.205267,101.187502 161.805279,101.86282 C162.405292,102.53779 162.705818,103.422018 162.705818,104.515158 L162.705818,113.904359 L166.081711,113.904359 L166.081711,104.354484 C166.081711,103.34706 166.403406,102.511069 167.046103,101.846509 C167.689493,101.182297 168.525832,100.849497 169.554424,100.849497 C170.562195,100.849497 171.36036,101.182297 171.949961,101.846509 C172.539563,102.511069 172.83419,103.400503 172.83419,104.515158 L172.83419,113.904359 L176.242703,113.904359 L176.242703,104.033135 C176.242703,102.146689 175.722507,100.629828 174.68281,99.4832458 C173.64346,98.3363168 172.212315,97.7626788 170.390763,97.7626788 C168.118074,97.7626788 166.339206,98.5882595 165.053118,100.238727 Z M134.243588,106.017097 C134.243588,108.103779 135.935004,109.794848 138.021339,109.794848 C140.107674,109.794848 141.799091,108.103779 141.799091,106.017097 C141.799091,103.931109 140.107674,102.239693 138.021339,102.239693 C135.935004,102.239693 134.243588,103.931109 134.243588,106.017097 Z M119.835315,102.239693 C118.612734,102.239693 117.621967,103.231153 117.621967,104.453387 L117.621967,107.581501 C117.621967,108.804082 118.612734,109.794848 119.835315,109.794848 L122.963429,109.794848 C124.185663,109.794848 125.177123,108.804082 125.177123,107.581501 L125.177123,104.453387 C125.177123,103.231153 124.185663,102.239693 122.963429,102.239693 L119.835315,102.239693 Z M101,109.794848 L108.555503,109.794848 L108.555503,102.239693 L101,102.239693 L101,109.794848 Z" id="Fill-1"></path>
        </g>
    </g>
</svg>