<?xml version="1.0" encoding="UTF-8"?>
<svg width="120px" height="24px" viewBox="0 0 120 24" version="1.1" xmlns="http://www.w3.org/2000/svg" xmlns:xlink="http://www.w3.org/1999/xlink">
    <!-- Generator: Sketch 51.3 (57544) - http://www.bohemiancoding.com/sketch -->
    <title>Fill 1</title>
    <desc>Created with Sketch.</desc>
    <defs>
        <linearGradient x1="0%" y1="0%" x2="100%" y2="100%" id="linearGradient-1">
            <stop stop-color="#EECC6A" offset="0%"></stop>
            <stop stop-color="#DE7A7A" offset="100%"></stop>
        </linearGradient>
    </defs>
    <g id="Marketing-site" stroke="none" stroke-width="1" fill="none" fill-rule="evenodd">
        <g id="Desktop-HD" transform="translate(-103.000000, -48.000000)" fill="url(#linearGradient-1)">
            <path d="M130.873323,48 C129.24923,48 127.932604,49.3026237 127.932604,50.9094447 L127.932604,52.5657063 C127.932604,54.1721839 129.24923,55.4751509 130.873323,55.4751509 L132.547388,55.4751509 C134.171481,55.4751509 135.48776,54.1721839 135.48776,52.5657063 L135.48776,50.9094447 C135.48776,49.3026237 134.171481,48 132.547388,48 L130.873323,48 Z M112.571391,48 C111.875252,48 111.310984,48.5586106 111.310984,49.2473463 L111.310984,54.2274613 C111.310984,54.9165403 111.875252,55.4751509 112.571391,55.4751509 L117.605732,55.4751509 C118.301871,55.4751509 118.86614,54.9165403 118.86614,54.2274613 L118.86614,49.2473463 C118.86614,48.5586106 118.301871,48 117.605732,48 L112.571391,48 Z M219.591834,48.2241996 L219.591834,57.9389431 C218.348431,56.4334068 216.590732,55.6801236 214.318043,55.6801236 C212.089079,55.6801236 210.245317,56.4598438 208.787798,58.0185975 C207.330279,59.5773511 206.601172,61.5230466 206.601172,63.856027 C206.601172,66.1890075 207.330279,68.1295528 208.787798,69.677663 C210.245317,71.2257732 212.089079,72 214.318043,72 C216.78368,72 218.627095,71.1413121 219.848982,69.4232497 L219.848982,71.6501388 L223,71.6501388 L223,48.2241996 L219.591834,48.2241996 Z M211.42452,67.5142914 C210.502812,66.5601556 210.041612,65.3299763 210.041612,63.8240966 C210.041612,62.3398472 210.502812,61.119968 211.42452,60.1661755 C212.346227,59.2116964 213.503914,58.7341135 214.897233,58.7341135 C216.183321,58.7341135 217.297976,59.1746159 218.241199,60.0545907 C219.184422,60.9345655 219.655687,62.2018254 219.655687,63.856027 C219.655687,65.5311722 219.189975,66.7987754 218.257163,67.6574633 C217.325044,68.5164945 216.204836,68.9460101 214.897233,68.9460101 C213.503914,68.9460101 212.346227,68.4691139 211.42452,67.5142914 Z M199.978134,71.6501388 L203.354374,71.6501388 L203.354374,48.2241996 L199.978134,48.2241996 L199.978134,71.6501388 Z M183.660164,58.0501845 C182.084655,59.6302252 181.296553,61.5656204 181.296553,63.856027 C181.296553,66.1677205 182.100618,68.1031158 183.708748,69.6618695 C185.315836,71.2206232 187.341788,72 189.785562,72 C192.186305,72 194.287215,71.1622557 196.087599,69.4867672 L194.480163,67.1963606 C193.065675,68.42654 191.532851,69.041458 189.881689,69.041458 C188.509886,69.041458 187.363304,68.68061 186.441597,67.9599439 C185.519542,67.2389345 184.951804,66.231238 184.73734,64.9375411 L196.505768,64.9375411 C196.6772,64.1952448 196.763263,63.4955223 196.763263,62.8380304 C196.763263,60.7810935 196.071635,59.0736746 194.689074,57.7161168 C193.306513,56.3592458 191.564777,55.6801236 189.464214,55.6801236 C187.170356,55.6801236 185.235673,56.4704873 183.660164,58.0501845 Z M186.425633,59.5454207 C187.250867,58.8563417 188.220464,58.5116306 189.33512,58.5116306 C190.471638,58.5116306 191.425619,58.8563417 192.19741,59.5454207 C192.968854,60.2348431 193.365508,61.1625418 193.386676,62.3292037 L184.80154,62.3292037 C185.059035,61.1625418 185.6004,60.2348431 186.425633,59.5454207 Z M167.053118,58.1298389 C166.045348,56.4969243 164.448323,55.6801236 162.262044,55.6801236 C160.353735,55.6801236 158.832015,56.295385 157.696191,57.5255644 L157.696191,56.0303282 L154.544826,56.0303282 L154.544826,71.6501388 L157.921065,71.6501388 L157.921065,62.3607908 C157.921065,61.2792767 158.242414,60.4044519 158.885805,59.7366599 C159.528848,59.0685245 160.36484,58.7341135 161.393779,58.7341135 C162.401202,58.7341135 163.205267,59.0685245 163.805279,59.7366599 C164.405292,60.4044519 164.705818,61.2792767 164.705818,62.3607908 L164.705818,71.6501388 L168.081711,71.6501388 L168.081711,62.2018254 C168.081711,61.2051157 168.403406,60.3780149 169.046103,59.720523 C169.689493,59.0633744 170.525832,58.7341135 171.554424,58.7341135 C172.562195,58.7341135 173.36036,59.0633744 173.949961,59.720523 C174.539563,60.3780149 174.83419,61.2579898 174.83419,62.3607908 L174.83419,71.6501388 L178.242703,71.6501388 L178.242703,61.8838946 C178.242703,60.0175102 177.722507,58.5167806 176.68281,57.3823925 C175.64346,56.247661 174.212315,55.6801236 172.390763,55.6801236 C170.118074,55.6801236 168.339206,56.4969243 167.053118,58.1298389 Z M136.243588,63.8467569 C136.243588,65.9112472 137.935004,67.5843324 140.021339,67.5843324 C142.107674,67.5843324 143.799091,65.9112472 143.799091,63.8467569 C143.799091,61.7829533 142.107674,60.1095248 140.021339,60.1095248 C137.935004,60.1095248 136.243588,61.7829533 136.243588,63.8467569 Z M121.835315,60.1095248 C120.612734,60.1095248 119.621967,61.0904409 119.621967,62.2996767 L119.621967,65.3945238 C119.621967,66.6041029 120.612734,67.5843324 121.835315,67.5843324 L124.963429,67.5843324 C126.185663,67.5843324 127.177123,66.6041029 127.177123,65.3945238 L127.177123,62.2996767 C127.177123,61.0904409 126.185663,60.1095248 124.963429,60.1095248 L121.835315,60.1095248 Z M103,67.5843324 L110.555503,67.5843324 L110.555503,60.1095248 L103,60.1095248 L103,67.5843324 Z" id="Fill-1"></path>
        </g>
    </g>
</svg>