<?xml version="1.0" encoding="UTF-8"?>
<svg width="77px" height="77px" viewBox="0 0 77 77" version="1.1" xmlns="http://www.w3.org/2000/svg" xmlns:xlink="http://www.w3.org/1999/xlink">
    <!-- Generator: Sketch 51.2 (57519) - http://www.bohemiancoding.com/sketch -->
    <title>Group 305</title>
    <desc>Created with Sketch.</desc>
    <defs></defs>
    <g id="Landing-page" stroke="none" stroke-width="1" fill="none" fill-rule="evenodd">
        <g id="1-Landing" transform="translate(-1273.000000, -737.000000)" fill="#FFFFFF">
            <g id="Group-305" transform="translate(1273.000000, 737.000000)">
                <polygon id="Fill-1" points="22.978144 51.694831 28.9553751 21.0297621 38.7026495 43.1975276 48.8004545 21.0297621 54.1708227 51.694831 49.7750069 51.694831 47.0344942 34.4779345 38.6294617 53.0071138 30.4632523 34.4603483 27.4100285 51.694831"></polygon>
                <g id="Group-268" transform="translate(2.956679, 2.229228)">
                    <path d="M19.4718921,35.2915076 C19.4718921,35.9801834 18.9154552,36.5387214 18.230152,36.5387214 C17.5444986,36.5387214 16.9877116,35.9801834 16.9877116,35.2915076 C16.9877116,34.6021283 17.5444986,34.0442938 18.230152,34.0442938 C18.9154552,34.0442938 19.4718921,34.6021283 19.4718921,35.2915076" id="Fill-2"></path>
                    <path d="M55.4895329,35.2915076 C55.4895329,35.9801834 54.933096,36.5387214 54.2477928,36.5387214 C53.5621394,36.5387214 53.0053523,35.9801834 53.0053523,35.2915076 C53.0053523,34.6021283 53.5621394,34.0442938 54.2477928,34.0442938 C54.933096,34.0442938 55.4895329,34.6021283 55.4895329,35.2915076" id="Fill-4"></path>
                    <path d="M35.5716465,10.4288317 C35.5709505,9.80979724 35.6546437,9.19463172 35.8209794,8.59986621 C36.4572574,6.30768 38.24703,4.49137655 40.8614776,3.48614897 C43.4475606,2.4914731 46.5365029,2.41057655 49.5603116,3.25823172 L49.4163874,3.77526621 C46.5028856,2.95821103 43.5326545,3.03348 41.052326,3.98735586 C38.6003621,4.93032828 36.9254487,6.61965931 36.3357448,8.74442483 C36.1827159,9.29205931 36.105326,9.85833517 36.1060264,10.4281283 L35.5716465,10.4288317 Z" id="Fill-6"></path>
                    <path d="M36.3253617,10.4286559 L35.790969,10.427249 C35.7920195,9.85815931 35.71533,9.29188345 35.5623011,8.74460069 C34.9725971,6.61948345 33.2973336,4.93015241 30.8453697,3.98753172 C28.3650412,3.03330414 25.3944599,2.9583869 22.4809581,3.77544207 L22.3373841,3.25840759 C25.3604924,2.41040069 28.4494347,2.49164897 31.0365682,3.4859731 C33.6506657,4.49120069 35.4407884,6.30750414 36.0767162,8.60004207 C36.243052,9.19445586 36.3267451,9.8099731 36.3253617,10.4286559" id="Fill-8"></path>
                    <path d="M68.1680282,23.0007538 C66.6825625,20.3536779 64.5293025,18.2974986 62.1039523,17.2103193 C59.7069668,16.1354503 57.3330931,16.1403745 55.4197069,17.2240366 C54.9242014,17.504009 54.4710679,17.8497538 54.0722123,18.2514228 L53.6936671,17.8726159 C54.1271906,17.4357745 54.6195444,17.0601331 55.1574217,16.7565952 C57.2220859,15.5874641 59.7664975,15.5744503 62.3217646,16.7200159 C64.8511184,17.8536228 67.0922736,19.9906986 68.6334181,22.7369607 L68.1680282,23.0007538 Z" id="Fill-10"></path>
                    <path d="M54.226957,18.407729 L53.8498126,18.0275152 C54.2518199,17.6251428 54.5960473,17.1700117 54.8733903,16.6744324 C55.9526466,14.7533152 55.9575491,12.369329 54.8873975,9.96107379 C53.8049895,7.52538414 51.7571339,5.36228069 49.1216755,3.87097034 L49.3839606,3.40317724 C52.1185202,4.95076345 54.2465671,7.20214966 55.3751989,9.74230138 C56.5164372,12.3098876 56.5034805,14.8651634 55.3391303,16.9378738 C55.0379751,17.4763634 54.6636321,17.9708876 54.226957,18.407729" id="Fill-12"></path>
                    <path d="M68.4075866,50.0570628 L67.8928213,49.9125041 C68.7059404,46.9861593 68.6310018,44.0024834 67.6813123,41.5115731 C66.7424783,39.0488007 65.0605614,37.3665041 62.9451209,36.7742007 C62.401991,36.6212007 61.8427527,36.5434697 61.2821137,36.5434697 L61.2688069,36.5434697 L61.2681065,36.0070903 L61.2821137,36.0070903 C61.891778,36.0070903 62.4993412,36.0911524 63.0890451,36.2571662 C65.3711715,36.896249 67.1795036,38.693911 68.1803195,41.3198834 C69.17063,43.9173662 69.2511715,47.0202766 68.4075866,50.0570628" id="Fill-14"></path>
                    <path d="M61.282569,36.7640007 L61.2682116,36.7640007 L61.2692621,36.2276214 L61.282569,36.2276214 C61.8421574,36.2276214 62.4017458,36.1502421 62.9455762,35.9972421 C65.0606664,35.4052903 66.7425834,33.7226421 67.6810671,31.2598697 C68.6304065,28.7686076 68.7053451,25.7849317 67.892226,22.8585869 L68.4069913,22.71438 C69.2505762,25.7508145 69.1700347,28.8537248 68.1804245,31.451911 C67.1799588,34.0775317 65.3716267,35.8755455 63.0891502,36.5142766 C62.4987458,36.6799386 61.8908325,36.7640007 61.282569,36.7640007" id="Fill-16"></path>
                    <path d="M49.0137498,69.214351 L48.7511144,68.7469097 C51.3865729,67.2555993 53.4340783,65.0917924 54.5164863,62.6561028 C55.5862877,60.2481993 55.5813852,57.8638614 54.5028292,55.9430959 C54.2240856,55.4450545 53.8802083,54.9899234 53.479952,54.5896614 L53.8570964,54.2090959 C54.2920206,54.6434752 54.6660134,55.138351 54.9682191,55.6800062 C56.1322191,57.7523648 56.1451758,60.3076407 55.0042877,62.8752269 C53.875656,65.4153786 51.7483094,67.6667648 49.0137498,69.214351" id="Fill-18"></path>
                    <path d="M58.2234271,56.7480517 C56.9956942,56.7480517 55.8302935,56.4526034 54.787456,55.8613552 C54.25203,55.5592241 53.7596762,55.1835828 53.3240516,54.7449828 L53.7025968,54.3658241 C54.1032032,54.7696034 54.556687,55.1149966 55.0497412,55.3932103 C56.9627773,56.4775759 59.3363007,56.4821483 61.7339866,55.4072793 C64.1586365,54.3204517 66.3122466,52.263569 67.7977123,49.6164931 L68.262752,49.8802862 C66.7219578,52.6269 64.4804523,54.7632724 61.9517989,55.8975828 C60.6869469,56.4645621 59.4255968,56.7480517 58.2234271,56.7480517" id="Fill-20"></path>
                    <path d="M25.9550289,69.5684669 C24.5970289,69.5688186 23.1984079,69.3753703 21.813444,68.9870669 L21.9570181,68.4700324 C24.87087,69.2867359 27.8414513,69.2111152 30.3217798,68.2572393 C32.7737437,67.3149703 34.448657,65.6256393 35.038361,63.5012255 C35.1924404,62.9500738 35.2694801,62.3841497 35.2677292,61.8182255 L35.8021316,61.8168186 C35.8038556,62.4323359 35.7201625,63.0475014 35.5527762,63.6454324 C34.9168484,65.9376186 33.1270758,67.7535703 30.5129783,68.7591497 C29.1112058,69.2976393 27.561657,69.5684669 25.9550289,69.5684669" id="Fill-22"></path>
                    <path d="M44.8943664,69.5684669 C43.2880884,69.5684669 41.7392401,69.2983428 40.3374675,68.7595014 C37.7230199,67.7546255 35.9325469,65.9386738 35.2966191,63.6454324 C35.1309838,63.0510186 35.0472906,62.4358531 35.0483314,61.8175221 L35.5827166,61.8182255 C35.5816661,62.3869634 35.659056,62.953591 35.8117347,63.501929 C36.4010884,65.6266945 38.076352,67.3156738 40.5283159,68.2579428 C43.0093448,69.2114669 45.9795758,69.2863841 48.8930776,68.4700324 L49.0370018,68.9870669 C47.6516877,69.3750186 46.2523664,69.5684669 44.8943664,69.5684669" id="Fill-24"></path>
                    <path d="M12.780678,56.3754 C11.5788585,56.3754 10.3171581,56.0919103 9.05265632,55.5252828 C6.52365271,54.3913241 4.28214729,52.2542483 2.74065271,49.5079862 L3.20639278,49.2445448 C4.6915083,51.891269 6.84546859,53.9481517 9.27046859,55.0346276 C11.6678043,56.1098483 14.0413278,56.1049241 15.9540137,55.0212621 C16.4516202,54.7409379 16.9044036,54.3951931 17.3008079,53.9938759 L17.6800534,54.3726828 C17.2489812,54.808469 16.7562773,55.1841103 16.2162989,55.4890552 C15.1738116,56.0796 14.0080606,56.3754 12.780678,56.3754" id="Fill-26"></path>
                    <path d="M21.98983,68.8423676 C19.2552704,67.2944297 17.1279238,65.0426917 15.9989419,62.5032434 C14.8577036,59.936009 14.8703101,57.3803814 16.0346603,55.307671 C16.3354653,54.7702366 16.7098083,54.2760641 17.1464834,53.8381676 L17.523978,54.2176779 C17.1219708,54.6207538 16.7773931,55.0762366 16.5004004,55.5711124 C15.421144,57.4922297 15.4165917,59.8765676 16.4867433,62.2841193 C17.5695014,64.7194572 19.6170069,66.8829124 22.2524653,68.3749262 L21.98983,68.8423676 Z" id="Fill-28"></path>
                    <path d="M10.0835527,36.2384897 C9.48089206,36.2384897 8.87613032,36.1540759 8.28502563,35.9887655 C6.00289928,35.349331 4.19456715,33.5513172 3.19410144,30.9260483 C2.20414116,28.3278621 2.12324946,25.2249517 2.9668343,22.1881655 L3.48124946,22.3323724 C2.66848051,25.2594207 2.74376931,28.2430966 3.69310866,30.7340069 C4.63159242,33.1967793 6.31350939,34.8794276 8.42859964,35.471731 C8.97978375,35.6261379 9.53867184,35.7042207 10.1045635,35.7014069 L10.1063144,36.2381379 C10.0986105,36.2381379 10.0912567,36.2384897 10.0835527,36.2384897" id="Fill-30"></path>
                    <path d="M2.96690433,49.5315517 C2.12331949,46.4947655 2.20386101,43.3915034 3.19347112,40.7943724 C4.19393682,38.1684 6.00226895,36.3703862 8.28474549,35.7313034 C8.87409928,35.5652897 9.48166245,35.481931 10.0909765,35.481931 L10.1056841,35.481931 L10.1046336,36.0186621 C9.54609567,36.0278069 8.97530144,36.0949862 8.42866968,36.2483379 C6.31287906,36.8402897 4.63096209,38.5229379 3.69282852,40.9857103 C2.74348917,43.4769724 2.66855054,46.4606483 3.48166968,49.3869931 L2.96690433,49.5315517 Z" id="Fill-32"></path>
                    <path d="M17.5175347,18.0364138 C17.0850617,17.6052 16.711069,17.1103241 16.4057116,16.5662069 C15.2417116,14.4934966 15.2287549,11.9382207 16.369643,9.37098621 C17.4986249,6.83083448 19.6263217,4.57944828 22.360531,3.03115862 L22.6231664,3.49895172 C19.9877079,4.99061379 17.9402025,7.15406897 16.8577946,9.58975862 C15.787643,11.9976621 15.7925455,14.3816483 16.8711014,16.3027655 C17.1526466,16.8039724 17.4965238,17.2591034 17.8939787,17.6554966 L17.5175347,18.0364138 Z" id="Fill-34"></path>
                    <path d="M3.57628845,22.6290869 L3.11054838,22.3652938 C4.65204296,19.6190317 6.89354838,17.4819559 9.42220181,16.3479972 C11.9785195,15.2024317 14.5225809,15.2147421 16.5861946,16.3842248 C17.1233715,16.6877628 17.6157253,17.0634041 18.0495989,17.500949 L17.6707036,17.8797559 C17.2714978,17.4773834 16.8183643,17.1312869 16.3239094,16.8516662 C14.4112235,15.7680041 12.0373498,15.7634317 9.64001408,16.837949 C7.21501408,17.92548 5.06175415,19.982011 3.57628845,22.6290869" id="Fill-36"></path>
                    <path d="M45.8638412,12.5443469 L45.3697365,12.3403469 C45.6029567,11.7702021 45.9149675,11.2338228 46.2966643,10.7463331 C47.7576173,8.87269862 50.0996245,7.87731931 52.901769,7.95927103 C55.6699458,8.03454 58.555083,9.14704345 61.0256065,11.0920779 L60.6957365,11.5144986 C58.3148592,9.64016069 55.5417798,8.56775379 52.8870614,8.49565034 C50.2586065,8.42671241 48.0713791,9.34119517 46.7168809,11.0776572 C46.3652996,11.526809 46.078852,12.0199262 45.8638412,12.5443469" id="Fill-38"></path>
                    <path d="M46.0662805,12.6297103 L45.5732264,12.4228966 C45.7910386,11.8984759 45.9356632,11.3459172 46.0028978,10.7803448 C46.2676343,8.59051034 45.3641686,6.38590345 43.4577859,4.57206207 C41.5296921,2.73782069 38.8140422,1.52613103 35.8108942,1.1613931 L35.8749773,0.62817931 C38.9912336,1.00698621 41.814739,2.26932414 43.8251253,4.18235172 C45.8575729,6.11613103 46.8191686,8.48217931 46.5334213,10.8447103 C46.4602336,11.4588207 46.3030025,12.0595655 46.0662805,12.6297103" id="Fill-40"></path>
                    <path d="M70.6948606,36.4840634 C70.3310231,33.4676772 69.1250014,30.7400566 67.2984599,28.8038152 C65.4925791,26.889029 63.2972975,25.9801738 61.117774,26.2471324 C60.5543336,26.3150152 60.0038498,26.4599255 59.4813805,26.6783462 L59.2761747,26.1827669 C59.8438173,25.9453531 60.4419256,25.7877807 61.053691,25.7142703 C63.4055032,25.4283186 65.7615177,26.3930979 67.6868101,28.4345048 C69.5914419,30.4537531 70.8478895,33.2897048 71.2257343,36.4196979 L70.6948606,36.4840634 Z" id="Fill-42"></path>
                    <path d="M59.565844,26.8822407 L59.3616888,26.3863097 C59.8852087,26.1692959 60.3765119,25.8812338 60.8233422,25.5298614 C62.5518332,24.1693924 63.4644036,21.9686545 63.3936671,19.3324821 C63.3211798,16.6657097 62.2538296,13.8804062 60.3870173,11.4893855 L60.8075841,11.1584131 C62.7440823,13.6391234 63.8524036,16.5369786 63.9276924,19.3177097 C64.0036816,22.1283372 63.0182736,24.4845372 61.1532123,25.9522821 C60.6678621,26.3342545 60.1338368,26.6469372 59.565844,26.8822407" id="Fill-44"></path>
                    <path d="M60.6078412,61.5732848 L60.1869242,61.2423124 C62.0533863,58.85094 63.1203863,56.0649331 63.1921733,53.3988641 C63.2632599,50.7630434 62.3506895,48.5616021 60.6218484,47.2007814 C60.1743177,46.8480021 59.6830144,46.55994 59.1615957,46.3439814 L59.3650505,45.8480503 C59.9316426,46.0822986 60.4656679,46.3953331 60.9517184,46.7787124 C62.8167798,48.246809 63.8021877,50.603009 63.7265487,53.4136366 C63.6519603,56.1936641 62.5439892,59.091871 60.6078412,61.5732848" id="Fill-46"></path>
                    <path d="M61.6688181,47.0665634 C61.3974282,47.0665634 61.1253379,47.0500324 60.8535978,47.0169703 C60.2425329,46.9431083 59.6447747,46.7848324 59.0760816,46.5477703 L59.2819877,46.0518393 C59.8048072,46.2706117 60.355291,46.4158738 60.9176809,46.4841083 C63.0961538,46.74966 65.2928361,45.8425634 67.098717,43.9277772 C68.9249083,41.9911841 70.13093,39.2632117 70.4944173,36.2468255 L71.0249408,36.311191 C70.6477964,39.4411841 69.3913487,42.2774876 67.486717,44.2967359 C65.7841394,46.1021359 63.7446881,47.0665634 61.6688181,47.0665634" id="Fill-48"></path>
                    <path d="M35.3910978,71.8179186 L35.3270148,71.2847048 C38.3298126,70.9196152 41.0454625,69.7079255 42.9735563,67.8733324 C44.879939,66.0598428 45.7837549,63.8552359 45.5186682,61.6661048 C45.4514336,61.0987738 45.306809,60.5458634 45.0896971,60.0228497 L45.5827513,59.8160359 C45.8191231,60.3851255 45.976004,60.9858703 46.0491917,61.6017393 C46.334939,63.9639186 45.3733433,66.3296152 43.3408957,68.2633945 C41.3305094,70.1760703 38.5073542,71.4384083 35.3910978,71.8179186" id="Fill-50"></path>
                    <path d="M52.1176798,64.4918214 C49.4521058,64.4918214 47.221456,63.5066421 45.8126798,61.7005386 C45.4334343,61.215511 45.1217736,60.6791317 44.8861022,60.1065248 L45.3802069,59.9018214 C45.5973188,60.4287041 45.8837664,60.9225248 46.2332466,61.3695662 C47.5873946,63.1056766 49.7788242,64.0233248 52.4034271,63.9512214 C55.0581455,63.8784145 57.8312249,62.8063593 60.2121022,60.9316697 L60.5419722,61.3544421 C58.0714487,63.2987731 55.1863116,64.4116283 52.4181347,64.4876007 C52.3172827,64.4904145 52.217131,64.4918214 52.1176798,64.4918214" id="Fill-52"></path>
                    <path d="M18.7708657,64.2895097 C18.6717646,64.2895097 18.5723134,64.2881028 18.4721617,64.2849372 C15.7036347,64.21002 12.8184975,63.0971648 10.3476238,61.1528338 L10.6774939,60.7300614 C13.0583711,62.604751 15.8318007,63.6768062 18.4865191,63.7489097 C21.1170751,63.8298062 23.3022014,62.9033648 24.6566996,61.1672545 C25.0093314,60.7163441 25.2964794,60.2225234 25.5093892,59.7009166 L26.003844,59.9049166 C25.7720245,60.4718959 25.4603639,61.0086269 25.0769162,61.4982269 C23.6681401,63.3043303 21.4367899,64.2895097 18.7708657,64.2895097" id="Fill-54"></path>
                    <path d="M35.4986383,71.6166621 C32.3827321,71.2375034 29.5592267,69.9748138 27.5484903,68.0621379 C25.5163928,66.1290621 24.5540968,63.7633655 24.839844,61.4004828 C24.9137321,60.7860207 25.070613,60.1856276 25.3069848,59.6154828 L25.8003892,59.8215931 C25.5829271,60.3463655 25.4383025,60.8996276 25.3703675,61.4652 C25.105631,63.6546828 26.0097971,65.8589379 27.9161798,67.6727793 C29.8442736,69.506669 32.5599235,70.7183586 35.5627213,71.0838 L35.4986383,71.6166621 Z" id="Fill-56"></path>
                    <path d="M9.50645523,46.5805159 C7.43023502,46.5805159 5.39043357,45.6160883 3.68750578,43.8103366 C1.78287401,41.7903848 0.526076173,38.9547848 0.148231408,35.8247917 L0.678754874,35.7604262 C1.04259242,38.7768124 2.24896426,41.5044331 4.07550578,43.4410262 C5.88068628,45.3554607 8.07596787,46.2636124 10.2554913,45.9980607 C10.8224336,45.9294745 11.3729173,45.7842124 11.8911845,45.5664952 L12.0974408,46.0617228 C11.5333,46.2987848 10.9351917,46.4563572 10.3195744,46.5309228 C10.0485347,46.5639848 9.77714477,46.5805159 9.50645523,46.5805159" id="Fill-58"></path>
                    <path d="M10.5664166,61.0869207 C8.62991841,58.6051552 7.52194729,55.7080034 7.44665848,52.9272724 C7.37031913,50.1173483 8.35572708,47.7611483 10.2211386,46.2930517 C10.7057884,45.911431 11.2398137,45.5983966 11.8081567,45.3623897 L12.0123119,45.8590241 C11.4887921,46.0756862 10.9971386,46.3644517 10.5506585,46.7158241 C8.82181733,48.0759414 7.90924693,50.2766793 7.98068375,52.9132034 C8.05317112,55.5789207 9.1205213,58.3642241 10.9869834,60.7555966 L10.5664166,61.0869207 Z" id="Fill-60"></path>
                    <path d="M12.0093704,26.3968966 C11.4448794,26.1644069 10.9108542,25.8513724 10.4223523,25.4665862 C8.55694079,23.9984897 7.57153285,21.6422897 7.64752202,18.8320138 C7.72246065,16.0512828 8.83008159,13.1534276 10.7662296,10.6720138 L11.1867964,11.0033379 C9.32103466,13.3947103 8.25368448,16.1800138 8.18189747,18.8464345 C8.11046065,21.4826069 9.02338123,23.6836966 10.7518722,25.0441655 C11.2018542,25.3983517 11.6931574,25.6864138 12.2121249,25.9002621 L12.0093704,26.3968966 Z" id="Fill-62"></path>
                    <path d="M0.879513357,35.998051 L0.348989892,35.9336855 C0.726484477,32.8036924 1.98293213,29.9680924 3.88721372,27.9484924 C5.81215596,25.9070855 8.16782022,24.9405476 10.5196325,25.2282579 C11.1306975,25.3017683 11.7288058,25.4596924 12.2971487,25.6974579 L12.0915928,26.1930372 C11.5687733,25.9742648 11.0182895,25.8290028 10.4558996,25.76112 C8.27427509,25.4941614 6.0807444,26.4026648 4.27521372,28.3178028 C2.44902238,30.2540441 1.2433509,32.9820166 0.879513357,35.998051" id="Fill-64"></path>
                    <path d="M25.7912144,12.4289462 C25.5562433,11.8637255 25.3990123,11.2633324 25.3240736,10.6439462 C25.0386765,8.28141517 26.0002722,5.91571862 28.0323697,3.98193931 C30.042756,2.06891172 32.8662614,0.806573793 35.9828679,0.427415172 L36.0469509,0.960277241 C33.0438029,1.32571862 30.3278029,2.53740828 28.4000592,4.37164966 C26.4936765,6.18513931 25.5898606,8.38974621 25.8545971,10.579229 C25.9239329,11.1497255 26.0685574,11.7026359 26.2842686,12.2221324 L25.7912144,12.4289462 Z" id="Fill-66"></path>
                    <path d="M25.9926383,12.3434069 C25.7779776,11.8186345 25.4911798,11.3251655 25.1402989,10.8760138 C23.7861509,9.13955172 21.5968224,8.22366207 18.9701184,8.29435862 C16.3157502,8.36681379 13.5426708,9.43886897 11.1617935,11.3135586 L10.8319235,10.8911379 C13.3024469,8.94610345 16.1872339,7.83324828 18.9554108,7.75762759 C21.7516022,7.68306207 24.0992123,8.6714069 25.5608657,10.5446897 C25.9418621,11.032531 26.2535227,11.5689103 26.4870931,12.1394069 L25.9926383,12.3434069 Z" id="Fill-68"></path>
                    <path d="M41.0890599,11.0040062 L40.5644895,10.9005993 C40.6835509,10.2931717 40.8852549,9.70579241 41.1646989,9.15499241 C42.2334498,7.03198552 44.3418866,5.60117172 47.1009588,5.12775103 C49.8313162,4.65925448 52.8764859,5.18508207 55.6765292,6.60815793 L55.4352549,7.08720621 C52.7364137,5.71548207 49.8089047,5.20759241 47.1909552,5.65674414 C44.6031213,6.10097172 42.6319552,7.42978552 41.6409444,9.39803379 C41.3839119,9.90522 41.1983162,10.4451166 41.0890599,11.0040062" id="Fill-70"></path>
                    <path d="M41.3036505,11.0477959 L40.7797805,10.9419269 C40.8918383,10.3823338 40.926156,9.81218897 40.8823834,9.24696828 C40.716748,7.04693379 39.4021704,5.06180276 37.1802751,3.65666483 C34.9331668,2.23534759 32.0343726,1.57903034 29.0175675,1.80940966 L28.9772968,1.27408552 C32.1079105,1.03596828 35.1212137,1.72042345 37.465322,3.20223724 C39.8335928,4.70023034 41.2364159,6.83273379 41.4150079,9.20581655 C41.4629827,9.81957517 41.4255134,10.4396648 41.3036505,11.0477959" id="Fill-72"></path>
                    <path d="M70.0926552,29.6175641 C69.1499693,26.7302607 67.4375866,24.2914055 65.2696191,22.7501503 C63.1272148,21.2264814 60.7974639,20.7657228 58.7110884,21.4540469 C58.172861,21.6306124 57.6608971,21.8806883 57.1899043,22.1975917 L56.8926011,21.7516055 C57.4042148,21.4072676 57.9603014,21.1357366 58.5447527,20.9440469 C60.7964134,20.2015572 63.2942509,20.68764 65.5788285,22.3122538 C67.8388935,23.9196331 69.6223628,26.454509 70.6007671,29.4501434 L70.0926552,29.6175641 Z" id="Fill-74"></path>
                    <path d="M57.311557,22.3814379 L57.0156545,21.9343966 C57.4862971,21.6199552 57.9124668,21.2411483 58.2819072,20.8085276 C59.7134451,19.1353759 60.1812863,16.7978172 59.5992863,14.2263621 C59.0106329,11.6253621 57.4229144,9.10279655 55.1274812,7.12364483 L55.4759108,6.71634828 C57.8571383,8.77006552 59.5068386,11.3949828 60.1207051,14.1074793 C60.7412249,16.8488172 60.2320625,19.3527414 58.6874162,21.1581414 C58.2861094,21.6280448 57.8231708,22.0395621 57.311557,22.3814379" id="Fill-76"></path>
                    <path d="M65.0721523,56.2012262 L64.5955567,55.9588883 C65.9609105,53.2477986 66.4669213,50.3066814 66.0193906,47.6771917 C65.5767625,45.0779503 64.2541307,43.0984469 62.2945206,42.1030676 C61.7888599,41.8445503 61.2513329,41.6581366 60.6955964,41.5487503 L60.7981993,41.0218676 C61.402961,41.1411021 61.9874123,41.3440469 62.5361451,41.624371 C64.6501848,42.6981848 66.074369,44.8155641 66.5464123,47.5871503 C67.0128527,50.32884 66.4893329,53.3877848 65.0721523,56.2012262" id="Fill-78"></path>
                    <path d="M61.9730199,41.8961483 C61.528991,41.8961483 61.0863628,41.8521828 60.652139,41.7646034 L60.7575433,41.2384241 C61.3111787,41.3502724 61.8791715,41.3840379 62.4457635,41.341831 C64.6354422,41.1751138 66.611861,39.8543897 68.0108321,37.6227 C69.4252112,35.3660379 70.0782978,32.4541138 69.84963,29.4243621 L70.3822545,29.3839138 C70.6200271,32.5276241 69.9382256,35.5549138 68.4629152,37.9090034 C66.9714964,40.2880655 64.8490523,41.6974241 62.4860343,41.8764517 C62.3151462,41.8898172 62.1439079,41.8961483 61.9730199,41.8961483" id="Fill-80"></path>
                    <path d="M42.3295394,71.1907241 L42.1632036,70.6807241 C45.0374852,69.733531 47.465987,68.0136 49.000478,65.8360759 C50.5178101,63.6838759 50.9761964,61.3449103 50.2908931,59.2489862 C50.1147523,58.7062759 49.8661242,58.1924069 49.5509617,57.7210966 L49.9946404,57.422131 C50.337117,57.9349448 50.6078065,58.4927793 50.7990051,59.0815655 C51.5378859,61.3428 51.0546368,63.8523517 49.4368029,66.1462966 C47.8361278,68.4166759 45.3123769,70.2080069 42.3295394,71.1907241" id="Fill-82"></path>
                    <path d="M55.3955094,60.9230524 C53.5444552,60.9230524 51.8842495,60.3448179 50.5861303,59.2245766 C50.1210906,58.8246662 49.7106791,58.3600386 49.3682025,57.8433559 L49.8129318,57.5450938 C50.1284444,58.0209766 50.505939,58.4493766 50.9342097,58.8169283 C52.5996682,60.2551283 54.9269679,60.7253834 57.4874877,60.1408179 C60.0767224,59.5499214 62.5885671,57.9548524 64.559383,55.6500041 L64.9648921,55.9996179 C62.9198379,58.3913421 60.3060906,60.0479628 57.6058487,60.6645352 C56.8477079,60.8375834 56.1070762,60.9230524 55.3955094,60.9230524" id="Fill-84"></path>
                    <path d="M22.2745267,67.2850034 C20.1048083,67.2850034 17.8296856,66.7215414 15.6963859,65.6375276 L15.9376603,65.158831 C18.6372018,66.5298517 21.5654112,67.0387966 24.1830105,66.5889414 C26.7711946,66.1447138 28.7423606,64.8155483 29.7330213,62.8480034 C29.9907542,62.3383552 30.1759996,61.7984586 30.2845556,61.2427345 L30.809126,61.3457897 C30.6911152,61.9504034 30.4894112,62.537431 30.209617,63.0903414 C29.1405159,65.2140517 27.0324292,66.6445138 24.2730069,67.1179345 C23.6227217,67.2297828 22.9535267,67.2850034 22.2745267,67.2850034" id="Fill-86"></path>
                    <path d="M41.1786361,71.0179572 C38.4917011,71.0179572 35.9465892,70.3324469 33.9088888,69.0437297 C31.5395675,67.5457366 30.1367444,65.4135848 29.9581523,63.0401503 C29.910878,62.4242814 29.9486975,61.8048952 30.0695097,61.1985228 L30.5933798,61.3043917 C30.4820224,61.8622262 30.4477047,62.4327228 30.4914773,62.9993503 C30.6564123,65.1990331 31.9713401,67.1845159 34.1932354,68.5896538 C36.4406939,70.0106193 39.3408888,70.6651779 42.3555928,70.4362055 L42.3962137,70.9711779 C41.9879032,71.0024814 41.5816939,71.0179572 41.1786361,71.0179572" id="Fill-88"></path>
                    <path d="M10.7091852,51.6408414 C9.07104079,51.6408414 7.38212022,51.0619034 5.79545235,49.9335724 C3.53538736,48.3261931 1.75191805,45.7913172 0.773513718,42.795331 L1.28127545,42.6279103 C2.22431155,45.5148621 3.9370444,47.954069 6.10431155,49.4949724 C8.24706606,51.0193448 10.5761166,51.4790483 12.6621419,50.7917793 C13.205622,50.6131034 13.7168856,50.3626759 14.1829758,50.0485862 L14.4813296,50.4935172 C13.9742682,50.8360966 13.4185318,51.1076276 12.8288278,51.3017793 C12.1410733,51.5286414 11.4298567,51.6408414 10.7091852,51.6408414" id="Fill-90"></path>
                    <path d="M15.8975996,65.5298297 C13.5163722,63.475409 11.867022,60.85014 11.2531556,58.1379952 C10.6326357,55.3966572 11.141448,52.8927331 12.6860942,51.0873331 C13.0860004,50.61954 13.5485888,50.207671 14.0616032,49.8643883 L14.3582061,50.3107262 C13.8858126,50.6269262 13.4599931,51.0060848 13.0916032,51.4376503 C11.6600653,53.1104503 11.1922242,55.4476572 11.7742242,58.0191124 C12.3628776,60.6197607 13.9509462,63.1426779 16.2456791,65.1232366 L15.8975996,65.5298297 Z" id="Fill-92"></path>
                    <path d="M10.5753112,31.2236772 C9.97475162,31.1058497 9.39030036,30.9032566 8.83771552,30.6215255 C6.72332563,29.5477117 5.29914152,27.4303324 4.82779856,24.6594497 C4.36135812,21.9174083 4.88487798,18.8581117 6.3017083,16.0446703 L6.77865415,16.2870083 C5.41295018,18.9984497 4.90728953,21.9395669 5.35447004,24.5687048 C5.79674801,27.1679462 7.11972996,29.1478014 9.07898989,30.142829 C9.58780217,30.4020497 10.1256794,30.5888152 10.6779141,30.6967945 L10.5753112,31.2236772 Z" id="Fill-94"></path>
                    <path d="M0.991325993,42.8625103 C0.75390361,39.7184483 1.43535487,36.6908069 2.91066534,34.3374207 C4.40208412,31.9580069 6.52452816,30.5486483 8.88719603,30.369269 C9.50036209,30.3221379 10.1177303,30.3597724 10.7214415,30.4818207 L10.6163874,31.008 C10.0606509,30.8958 9.49265812,30.8609793 8.92781697,30.9045931 C6.73778809,31.0709586 4.76171949,32.3916828 3.36309856,34.6230207 C1.94836931,36.8803862 1.29528267,39.7923103 1.52430072,42.8217103 L0.991325993,42.8625103 Z" id="Fill-96"></path>
                    <path d="M21.3792552,14.8238359 C21.03923,14.3162979 20.7681903,13.7581117 20.5745404,13.1640497 C19.8353094,10.9031669 20.3192588,8.39431862 21.9367426,6.10002207 C23.5370675,3.82964276 26.0611686,2.03831172 29.0440061,1.05594621 L29.2103419,1.56594621 C26.3357101,2.51278759 23.9075585,4.23307034 22.3727173,6.40989103 C20.8557354,8.56209103 20.3973491,10.9014083 21.0823022,12.9969807 C21.2608942,13.5439117 21.5098726,14.0577807 21.8225838,14.5241669 L21.3792552,14.8238359 Z" id="Fill-98"></path>
                    <path d="M6.81461769,16.5967366 L6.40910866,16.246771 C8.45416282,13.8550469 11.0675599,12.1984262 13.7678018,11.5818538 C16.4974588,10.9585986 18.9903939,11.4696538 20.7875202,13.0214607 C21.2553614,13.4248883 21.6650726,13.8898676 22.005448,14.4033848 L21.5603686,14.70024 C21.2476574,14.2282262 20.8701628,13.8001779 20.4390906,13.4287572 C18.7736321,11.9905572 16.4463325,11.5206538 13.8861628,12.1052193 C11.2969282,12.6964676 8.78543357,14.2915366 6.81461769,16.5967366" id="Fill-100"></path>
                    <path d="M64.9943422,16.8881752 C63.0235264,14.5829752 60.5120318,12.9879062 57.9227971,12.3970097 C55.3619271,11.8124441 53.035678,12.283051 51.3702195,13.7208993 C50.9391473,14.0909131 50.5613025,14.5182579 50.2475408,14.9920303 L49.8028116,14.6944717 C50.1442375,14.1795476 50.5542989,13.71492 51.0221401,13.313251 C52.8189162,11.7621476 55.3111509,11.2514441 58.0411581,11.8736441 C60.7417502,12.4898648 63.3551473,14.1464855 65.3995011,16.5382097 L64.9943422,16.8881752 Z" id="Fill-102"></path>
                    <path d="M50.4300549,15.1151338 L49.986026,14.8158166 C50.302239,14.3430993 50.5512173,13.8295821 50.7266578,13.2889821 C51.4123112,11.1930579 50.9539249,8.85338897 49.4365928,6.70118897 C47.9017516,4.52401655 45.4736,2.80373379 42.5993184,1.85759586 L42.7656542,1.34759586 C45.7484917,2.32925793 48.2722426,4.12058897 49.8729177,6.39096828 C51.4904014,8.68561655 51.9740007,11.1948166 51.2344195,13.4556993 C51.0442715,14.0430786 50.7732318,14.6012648 50.4300549,15.1151338" id="Fill-104"></path>
                    <path d="M70.4845422,43.3778917 L69.9519177,43.3370917 C70.1809357,40.3076917 69.5281993,37.3961193 68.1131199,35.1387538 C66.7141487,32.9074159 64.7373798,31.5870434 62.5477011,31.4203262 C61.981109,31.3763607 61.4138166,31.4108297 60.8584303,31.5223262 L60.7537264,30.9961469 C61.3567372,30.8748021 61.9744556,30.8375193 62.588322,30.8850021 C64.9506397,31.0647331 67.0737841,32.4740917 68.5655531,34.8528021 C70.0412137,37.2068917 70.722665,40.2341814 70.4845422,43.3778917" id="Fill-106"></path>
                    <path d="M60.9012574,31.7387069 L60.7979542,31.2121759 C61.3536906,31.1020862 61.8915679,30.9156724 62.3972285,30.6585621 C64.3571888,29.6631828 65.6798206,27.6836793 66.1220986,25.0840862 C66.5692791,22.4545966 66.0629181,19.513831 64.6968639,16.8027414 L65.1734596,16.5604034 C66.5913404,19.3731414 67.1152105,22.4324379 66.6484199,25.1744793 C66.1774271,27.9457138 64.753243,30.0637966 62.6385029,31.1376103 C62.0894199,31.4168793 61.5049686,31.6194724 60.9012574,31.7387069" id="Fill-108"></path>
                    <path d="M55.1860314,65.9677614 L54.8376018,65.5611683 C57.1323347,63.5813131 58.7200531,61.0580441 59.3083563,58.4570441 C59.889656,55.8852372 59.4218148,53.5476786 57.9906271,51.8748786 C57.6204863,51.4404993 57.1946668,51.0616924 56.7250747,50.7479545 L57.0209773,50.3009131 C57.5315404,50.642789 57.9944791,51.0543062 58.3961361,51.5249131 C59.9404321,53.3299614 60.4495946,55.8338855 59.8294249,58.5755752 C59.2159087,61.2880717 57.5665585,63.9133407 55.1860314,65.9677614" id="Fill-110"></path>
                    <path d="M60.3742708,52.0784566 C59.6532491,52.0784566 58.9423827,51.9666083 58.2539278,51.7393945 C57.6712274,51.5480566 57.1151408,51.2758221 56.6024765,50.9314841 L56.8994296,50.4851462 C57.3718231,50.8024014 57.8834368,51.052829 58.4206137,51.2293945 C60.5069892,51.9187738 62.8363899,51.4573117 64.9791444,49.9329393 C67.1464116,48.3913324 68.8591444,45.9524772 69.80113,43.0655255 L70.3088917,43.2325945 C69.3315379,46.228229 67.5480686,48.7634566 65.2880036,50.3711876 C63.7016859,51.4995186 62.0124152,52.0784566 60.3742708,52.0784566" id="Fill-112"></path>
                    <path d="M29.6809845,71.120309 C29.2779267,71.120309 28.8717173,71.1048331 28.4634069,71.0738814 L28.5040278,70.5385572 C31.5201325,70.7668262 34.4192769,70.1126193 36.6663852,68.6913021 C38.8882805,67.2861641 40.2032083,65.3010331 40.3691939,63.1013503 C40.4122661,62.5329641 40.3779484,61.9628193 40.266591,61.40604 L40.790461,61.300171 C40.9116235,61.9054883 40.9490928,62.5252262 40.9014682,63.1421503 C40.7228762,65.5152331 39.3200531,67.6477366 36.9514321,69.1457297 C34.9133816,70.4344469 32.3682697,71.120309 29.6809845,71.120309" id="Fill-114"></path>
                    <path d="M48.5847437,67.3877069 C47.9060939,67.3877069 47.2375993,67.3324862 46.5869639,67.2213414 C43.8275415,66.7479207 41.7187545,65.3171069 40.6496534,63.1933966 C40.3712599,62.6422448 40.1699061,62.0545138 40.0511949,61.4477897 L40.5757653,61.3443828 C40.6846715,61.902569 40.8702671,62.443169 41.1262491,62.9507069 C42.1176101,64.9193069 44.0887762,66.247769 46.6769603,66.6919966 C49.2949097,67.1418517 52.222769,66.6329069 54.9216101,65.260831 L55.1632347,65.7395276 C53.029935,66.8242448 50.7544621,67.3877069 48.5847437,67.3877069" id="Fill-116"></path>
                    <path d="M15.5426217,60.6300662 C14.8310549,60.6300662 14.0911235,60.5445972 13.3329827,60.371549 C10.6323906,59.75568 8.01864332,58.0990593 5.97323899,55.7073352 L6.37874801,55.3573697 C8.34991408,57.6622179 10.8617588,59.2576386 13.4513437,59.8481834 C16.0111632,60.432749 18.3384628,59.9624938 20.0039213,58.5246455 C20.4374448,58.1514662 20.8145892,57.7241214 21.1251993,57.2542179 L21.5706289,57.5514248 C21.2327047,58.06248 20.8226433,58.5267559 20.3520007,58.9319421 C19.0542318,60.0521834 17.3933256,60.6300662 15.5426217,60.6300662" id="Fill-118"></path>
                    <path d="M28.6078913,70.8984414 C25.625404,69.9157241 23.1016531,68.1243931 21.500978,65.8543655 C19.8834942,63.5597172 19.3995448,61.050869 20.1387758,58.7896345 C20.3299744,58.2022552 20.6006639,57.6437172 20.9431404,57.1305517 L21.3868191,57.4291655 C21.0720069,57.901531 20.8226783,58.4157517 20.6465375,58.9567034 C19.9615845,61.0526276 20.4199708,63.3919448 21.9373029,65.5441448 C23.472144,67.7209655 25.8999455,69.4412483 28.7745773,70.3880897 L28.6078913,70.8984414 Z" id="Fill-120"></path>
                    <path d="M9.30247509,41.3802393 C9.13053646,41.3802393 8.95824765,41.3735566 8.78560866,41.3605428 C6.42294079,41.18046 4.30049675,39.7714531 2.80907798,37.392391 C1.33341733,35.0386531 0.651615884,32.01066 0.889388448,28.8669497 L1.42236318,28.9070462 C1.19334513,31.9375014 1.84643177,34.8490738 3.26116101,37.1064393 C4.66013213,39.3377772 6.6365509,40.6585014 8.82587942,40.8255703 C9.39632347,40.8691841 9.96396606,40.8340117 10.5140996,40.7225152 L10.6198542,41.2486945 C10.1884318,41.3362738 9.74720433,41.3802393 9.30247509,41.3802393" id="Fill-122"></path>
                    <path d="M6.19991083,55.685669 C4.78273032,52.8718759 4.25886029,49.8122276 4.72495054,47.0701862 C5.1962935,44.2989517 6.62047762,42.1819241 8.73486751,41.1084621 C9.28184946,40.8295448 9.86630072,40.6269517 10.472113,40.5063103 L10.5761166,41.0321379 C10.0182791,41.1439862 9.48005162,41.3304 8.97649206,41.5875103 C7.01653177,42.5821862 5.6939,44.5616897 5.2519722,47.1612828 C4.8047917,49.7897172 5.31080253,52.7315379 6.67685668,55.443331 L6.19991083,55.685669 Z" id="Fill-124"></path>
                    <path d="M14.3530585,21.9440338 C13.8449466,21.6053234 13.3823581,21.1938062 12.9775495,20.7207372 C11.4332534,18.9153372 10.9244412,16.4114131 11.5446108,13.6700752 C12.1584773,10.9579303 13.8074773,8.33266138 16.1887047,6.27859241 L16.5371343,6.68553724 C14.2420513,8.66539241 12.6539827,11.1883097 12.0656794,13.7889579 C11.4840296,16.3604131 11.9515206,18.6979717 13.3827083,20.3707717 C13.7556505,20.8065579 14.18147,21.1853648 14.6486108,21.4969924 L14.3530585,21.9440338 Z" id="Fill-126"></path>
                    <path d="M1.57234549,29.1801248 L1.06458375,29.0130559 C2.04263791,26.0174214 3.82575704,23.4821938 6.08582202,21.8744628 C8.37004946,20.2494972 10.8682372,19.7637662 13.1195477,20.5066076 C13.7036487,20.6982972 14.2597354,20.9698283 14.7713491,21.3145179 L14.4736957,21.7601524 C14.0030531,21.443249 13.4914394,21.1931731 12.9532119,21.0166076 C10.8668365,20.3282834 8.53743574,20.7883386 6.39468123,22.312711 C4.22741408,23.8539662 2.51503141,26.2931731 1.57234549,29.1801248" id="Fill-128"></path>
                    <path d="M30.5829444,10.9454441 C30.4624823,10.3454028 30.425013,9.7253131 30.471587,9.10276138 C30.6508794,6.72967862 32.0537025,4.59787862 34.4223235,3.09988552 C36.7657314,1.61807172 39.7800852,0.933616552 42.9103487,1.17208552 L42.8697278,1.70705793 C39.8525726,1.4763269 36.9541285,2.13299586 34.7070202,3.5543131 C32.4854751,4.95945103 31.1705473,6.94423034 31.0049119,9.14320966 C30.9618397,9.71687172 30.9958072,10.2873683 31.1068144,10.8392234 L30.5829444,10.9454441 Z" id="Fill-130"></path>
                    <path d="M30.797535,10.9007752 C30.6889791,10.3446993 30.5033834,9.80445103 30.2463509,9.29480276 C29.2553401,7.32620276 27.2845242,5.99774069 24.6963401,5.5535131 C22.0783906,5.10436138 19.1508816,5.61295448 16.4520404,6.98503034 L16.2104159,6.50598207 C19.0111596,5.08255448 22.0563292,4.55637517 24.7863365,5.02452 C27.5454087,5.49794069 29.6538455,6.92840276 30.7229466,9.05246483 C31.0023906,9.6057269 31.2037444,10.1931062 31.3221054,10.79772 L30.797535,10.9007752 Z" id="Fill-132"></path>
                    <path d="M38.6112877,10.5930166 L38.0797137,10.5409614 C38.1395946,9.92403724 38.2831686,9.31977517 38.5062336,8.74540966 C39.3624249,6.52708552 41.3213347,4.89578897 44.020526,4.15259586 C46.6920531,3.41749241 49.7736415,3.64083724 52.6997498,4.78183034 L52.5068004,5.28233379 C49.6860964,4.18249241 46.722869,3.96547862 44.1619989,4.67033379 C41.6298437,5.36745103 39.7980495,6.88373379 39.0041903,8.9399131 C38.7989845,9.46925793 38.6666162,10.0249821 38.6112877,10.5930166" id="Fill-134"></path>
                    <path d="M38.8298004,10.6149993 L38.2982264,10.5611855 C38.3546054,9.99666828 38.3335946,9.42546828 38.2348437,8.86376483 C37.8555982,6.6908131 36.3529736,4.8446131 34.0046632,3.66493034 C31.6290386,2.47188207 28.6805188,2.10397862 25.7015332,2.63050966 L25.6087354,2.10222 C28.7001289,1.55634414 31.7666596,1.94077862 34.2438365,3.18517862 C36.7472769,4.44259241 38.351804,6.42631655 38.7615152,8.77055793 C38.8683202,9.38079931 38.8914321,10.0015924 38.8298004,10.6149993" id="Fill-136"></path>
                    <path d="M69.2925978,26.2608848 C68.0729191,23.4805055 66.1301177,21.2224366 63.8224282,19.9017124 C61.5413523,18.5964641 59.1783343,18.3678434 57.1689986,19.2577055 C56.6489805,19.4870297 56.1643307,19.7863469 55.7276556,20.1475676 L55.3879805,19.7332366 C55.8624751,19.3407124 56.3894968,19.0153676 56.9536375,18.7666986 C59.1212549,17.8064917 61.6548108,18.0439055 64.0871646,19.4353262 C66.4936051,20.8126779 68.5155473,23.1597331 69.7818,26.0442228 L69.2925978,26.2608848 Z" id="Fill-138"></path>
                    <path d="M55.8663971,20.3178372 L55.5277726,19.9020993 C55.965148,19.5433407 56.3527978,19.1240855 56.6791661,18.6566441 C57.9401661,16.8512441 58.1775884,14.4788648 57.3473105,11.977051 C56.5079278,9.44639586 54.6817365,7.09265793 52.2045596,5.34845793 L52.5113177,4.90880276 C55.0812924,6.71842345 56.9789206,9.16853379 57.8543718,11.80752 C58.739278,14.4746441 58.477343,17.0169062 57.1165415,18.9651062 C56.7621588,19.4726441 56.3412419,19.9277752 55.8663971,20.3178372" id="Fill-140"></path>
                    <path d="M66.8909199,53.2109028 L66.3929632,53.016751 C67.4872773,50.1843166 67.7033386,47.2076752 67.0012267,44.6351648 C66.3075191,42.0918476 64.7975408,40.2519786 62.7503856,39.4539166 C62.2212628,39.2471028 61.6676274,39.1145028 61.1048874,39.0599855 L61.1563639,38.5253648 C61.7677791,38.5848062 62.369039,38.7290131 62.9440354,38.9541166 C65.1526238,39.8147855 66.7771112,41.7819786 67.5166924,44.49342 C68.2489199,47.17602 68.0265552,50.2718959 66.8909199,53.2109028" id="Fill-142"></path>
                    <path d="M61.7526162,39.3131566 C61.5292011,39.3131566 61.3054357,39.3019014 61.0823708,39.2790393 L61.1362986,38.7451221 C61.6983383,38.8024531 62.2670314,38.7809979 62.8259195,38.68146 C64.9896848,38.3005428 66.8277823,36.7916462 68.0022877,34.4329841 C69.1901,32.047591 69.5556884,29.0853703 69.0318184,26.0929014 L69.5584899,26.0000462 C70.10197,29.1050669 69.7188726,32.1854669 68.4802841,34.6732117 C67.2283888,37.1876876 65.2530206,38.7989359 62.9190675,39.2101014 C62.5331686,39.2786876 62.1430675,39.3131566 61.7526162,39.3131566" id="Fill-144"></path>
                    <path d="M45.7207224,70.3674083 L45.5050112,69.8764014 C48.2731881,68.6506428 50.5216971,66.699629 51.8366249,64.3824703 C53.1364949,62.0909876 53.3641123,59.7175531 52.4778054,57.6997117 C52.2494877,57.1770497 51.9518343,56.6899117 51.5918487,56.2520152 L52.0047116,55.910491 C52.395513,56.3867255 52.71943,56.9160703 52.9670076,57.4834014 C53.9230004,59.6609255 53.6862783,62.2052979 52.3009643,64.6476703 C50.9300076,67.0647186 48.5929029,69.0955738 45.7207224,70.3674083" id="Fill-146"></path>
                    <path d="M56.8805199,58.904789 C55.3603863,58.904789 53.9544116,58.4820166 52.7694007,57.6466717 C52.2647906,57.2924855 51.8113069,56.8697131 51.421556,56.3913683 L51.8351191,56.0508993 C52.1944043,56.4916097 52.6114693,56.8809683 53.0758087,57.2070166 C54.8739856,58.4739269 57.2359531,58.7120441 59.7264368,57.8781062 C62.2456354,57.0353752 64.5893935,55.2004303 66.3262888,52.7130372 L66.7636643,53.0207959 C64.9616354,55.602451 62.5226282,57.5080924 59.895574,58.3874028 C58.8625415,58.7334993 57.848769,58.904789 56.8805199,58.904789" id="Fill-148"></path>
                    <path d="M24.1032394,68.5170931 C22.3218711,68.5170931 20.4683657,68.1625552 18.6729903,67.4629759 L18.8666401,66.9624724 C21.6866437,68.0616103 24.6509217,68.2789759 27.2121419,67.5744724 C29.7439469,66.8773552 31.5760913,65.3614241 32.3699505,63.3052448 C32.5769072,62.772031 32.7089253,62.2163069 32.7621527,61.6524931 L33.2944271,61.7041966 C33.2362971,62.3165483 33.0927231,62.9208103 32.8682574,63.5001 C32.0113657,65.7180724 30.0528061,67.349369 27.3532646,68.0918586 C26.3205823,68.3764034 25.2262682,68.5170931 24.1032394,68.5170931" id="Fill-150"></path>
                    <path d="M43.0346978,70.3849241 C40.9056004,70.3849241 38.8721022,69.935069 37.1299542,69.060331 C34.6261635,67.8025655 33.0223368,65.8188414 32.6129758,63.4746 C32.5058206,62.8657655 32.4827087,62.2449724 32.5443404,61.6298069 L33.0755643,61.6836207 C33.0191852,62.2495448 33.0408964,62.8207448 33.1392971,63.3813931 C33.5185426,65.5543448 35.0204668,67.4001931 37.3687773,68.5798759 C39.7444018,69.7729241 42.6929217,70.1404759 45.6726076,69.6139448 L45.7650552,70.1429379 C44.8479325,70.304731 43.9325606,70.3849241 43.0346978,70.3849241" id="Fill-152"></path>
                    <path d="M11.6460231,54.0582766 C10.2228895,54.0582766 8.73707365,53.6397248 7.28697617,52.8093041 C4.8812361,51.4319524 2.85894368,49.0845455 1.59269097,46.1997041 L2.08189314,45.9830421 C3.30192202,48.7637731 5.24437329,51.0221938 7.55171264,52.3429179 C9.83278845,53.6481662 12.1958065,53.8771386 14.2047921,52.9872766 C14.7276116,52.7561938 15.2119112,52.4568766 15.6454347,52.0981179 L15.9858101,52.5120972 C15.5144671,52.902511 14.9877957,53.2278559 14.4205032,53.4786352 C13.545052,53.8658834 12.6097199,54.0582766 11.6460231,54.0582766" id="Fill-154"></path>
                    <path d="M18.862683,67.3361793 C16.2923581,65.5262069 14.39473,63.0757448 13.5192787,60.4371103 C12.6343726,57.7699862 12.8963076,55.2280759 14.2574592,53.2791724 C14.610091,52.7733931 15.0306578,52.3182621 15.5072534,51.9264414 L15.8455278,52.3418276 C15.4067516,52.7026966 15.0201523,53.1216 14.6951848,53.5872828 C13.4338347,55.3937379 13.1960621,57.7661172 14.0263401,60.2675793 C14.8657227,62.797531 16.6922643,65.1519724 19.1694412,66.8965241 L18.862683,67.3361793 Z" id="Fill-156"></path>
                    <path d="M10.2182671,33.7188786 C9.61035379,33.6608441 9.00874368,33.5166372 8.43059567,33.2918855 C6.22165704,32.4308648 4.59751986,30.4636717 3.85793863,27.7522303 C3.12571119,25.0692786 3.34842599,21.973051 4.48441155,19.0340441 L4.98271841,19.2281959 C3.88770397,22.0609821 3.67129242,25.0379752 4.37340433,27.6101338 C5.06711191,30.153451 6.57674007,31.99332 8.62424549,32.7910303 C9.15651986,32.9985476 9.70980505,33.1311476 10.2690433,33.1846097 L10.2182671,33.7188786 Z" id="Fill-158"></path>
                    <path d="M1.81617617,46.2444083 C1.27269603,43.1397393 1.65544332,40.059691 2.89438195,37.5719462 C4.14627726,35.0571186 6.12094513,33.4462221 8.45524838,33.0350566 C9.06246137,32.9277807 9.68052996,32.9042152 10.2915949,32.9657669 L10.2380173,33.4996841 C9.67597762,33.4434083 9.10728448,33.4645117 8.54769603,33.5640497 C6.38428087,33.9446152 4.54653357,35.4535117 3.37237834,37.8121738 C2.18421588,40.1975669 1.81862744,43.1594359 2.34249747,46.1515531 L1.81617617,46.2444083 Z" id="Fill-160"></path>
                    <path d="M19.3698144,16.3343152 C18.9821646,15.8626531 18.6582477,15.3340117 18.4068181,14.76246 C17.4508253,12.5845841 17.6875473,10.0402117 19.0735617,7.59748759 C20.4445184,5.18079103 22.7816231,3.14958414 25.6541538,1.87774966 L25.8695148,2.36910828 C23.1013379,3.59451517 20.8524787,5.54588069 19.5379011,7.86339103 C18.238031,10.1541703 18.0097134,12.5276048 18.8960202,14.5457979 C19.1274895,15.0719772 19.425143,15.5587634 19.7819769,15.9924393 L19.3698144,16.3343152 Z" id="Fill-162"></path>
                    <path d="M5.04799206,19.5322966 L4.61026643,19.2241862 C6.41229531,16.642531 8.85165271,14.7368897 11.4787069,13.8575793 C14.1341256,12.9684207 16.6648801,13.2318621 18.6048801,14.5986621 C19.1094903,14.9535517 19.562974,15.3759724 19.9516744,15.8543172 L19.5381112,16.1940828 C19.1798765,15.7537241 18.7628116,15.365069 18.298122,15.0379655 C16.4999451,13.7714069 14.1383278,13.5329379 11.6474939,14.3665241 C9.12829531,15.2099586 6.78453718,17.0445517 5.04799206,19.5322966" id="Fill-164"></path>
                    <path d="M62.9767072,14.0949931 C60.7905303,11.9948483 58.1351116,10.655131 55.5003534,10.3216966 C52.8929094,9.99283448 50.6247903,10.6896 49.1078083,12.2843172 C48.7159563,12.6947793 48.3822343,13.1572966 48.1160971,13.6599103 L47.644404,13.4077241 C47.9333029,12.8614966 48.2960899,12.3588828 48.7219094,11.9128966 C50.3586531,10.1926138 52.7875051,9.43781379 55.5672379,9.78918621 C58.3151043,10.1366897 61.0776783,11.5281103 63.3457975,13.7070414 L62.9767072,14.0949931 Z" id="Fill-166"></path>
                    <path d="M48.3089415,13.7643724 L47.8382989,13.5100759 C48.1065372,13.008869 48.304039,12.4731931 48.4255516,11.9181724 C48.903548,9.76421379 48.2192953,7.48117241 46.4992087,5.4890069 C44.7595119,3.47362759 42.1748296,2.0006069 39.2217574,1.34147586 L39.3380173,0.817758621 C42.4020968,1.50151034 45.0886816,3.03573103 46.9029668,5.13728276 C48.7368621,7.26134483 49.4631365,9.71075172 48.9476708,12.0338897 C48.8156527,12.6370966 48.6006419,13.2195517 48.3089415,13.7643724" id="Fill-168"></path>
                    <path d="M70.4910556,39.9286738 C70.4231206,36.8908324 69.4891892,34.0576945 67.8608498,31.9508669 C66.2507199,29.8676048 64.1489365,28.7526393 61.9592578,28.7980117 C61.3919653,28.8099703 60.8302758,28.89966 60.2888968,29.0656738 L60.1330664,28.5518048 C60.7213697,28.3720738 61.3320845,28.2742945 61.9477018,28.2616324 C64.308969,28.2057083 66.5662325,29.4005152 68.2828173,31.6213014 C69.9811928,33.8185221 70.9550448,36.7649152 71.0250809,39.9167152 L70.4910556,39.9286738 Z" id="Fill-170"></path>
                    <path d="M60.3527347,29.2773414 L60.1979549,28.7634724 C60.7382834,28.5999207 61.2555,28.3614517 61.7359477,28.0551 C63.5891029,26.8715483 64.7121318,24.7707 64.898778,22.1401552 C65.0871751,19.4793621 64.2968177,16.6026103 62.6723303,14.0388931 L63.1233628,13.750831 C64.8084314,16.410569 65.6285542,19.4037414 65.4317527,22.1784931 C65.2328502,24.9827897 64.0222762,27.2306586 62.0227455,28.5081207 C61.5009765,28.8408517 60.939287,29.0997207 60.3527347,29.2773414" id="Fill-172"></path>
                    <path d="M58.0038989,63.9041255 L57.6176498,63.5330566 C59.7082274,61.336891 61.0424152,58.6701186 61.3743863,56.0233945 C61.7018051,53.4065669 61.0080975,51.1263393 59.4203791,49.6016152 C59.0099675,49.2069807 58.54913,48.8717876 58.0508231,48.6055324 L58.3022527,48.13176 C58.8436318,48.421229 59.3440397,48.7856152 59.7898195,49.2136634 C61.5029025,50.859029 62.2540397,53.3010497 61.9042094,56.0905738 C61.558231,58.8505531 60.1732671,61.6253048 58.0038989,63.9041255" id="Fill-174"></path>
                    <path d="M61.1380845,49.6036552 C60.6457307,49.6036552 60.1547776,49.5505448 59.6690773,49.4411586 C59.0681675,49.3082069 58.4882686,49.0922483 57.9465394,48.7992621 L58.1997199,48.3268966 C58.6983769,48.5963172 59.2317018,48.7950414 59.784987,48.9174414 C61.9298426,49.3975448 64.2021639,48.7095724 66.1859365,46.9815517 C68.1921206,45.2345379 69.6583264,42.6384621 70.3142144,39.6730759 L70.8363336,39.7894966 C70.1552325,42.8663793 68.6280953,45.5651586 66.5357668,47.3881448 C64.8647054,48.8425241 62.9915899,49.6036552 61.1380845,49.6036552" id="Fill-176"></path>
                    <path d="M31.9092881,71.6173303 L31.8970318,71.080951 C34.9215408,71.0120131 37.7422448,70.0736131 39.8401762,68.4377441 C41.9146455,66.8201648 43.02927,64.7154476 42.978844,62.510489 C42.9672881,61.9403441 42.8779921,61.3765303 42.7123567,60.8334683 L43.22327,60.6758959 C43.4032628,61.2667924 43.5009632,61.8798476 43.5132195,62.4992338 C43.5671473,64.8779441 42.379335,67.13742 40.1679451,68.8619234 C37.9803675,70.5681372 35.0472556,71.5466338 31.9092881,71.6173303" id="Fill-178"></path>
                    <path d="M50.3826755,66.0264993 C50.110235,66.0264993 49.8388451,66.0170028 49.5699065,65.9976579 C46.7775671,65.7985821 44.5392134,64.58232 43.2677079,62.5743269 C42.9378379,62.05272 42.6801051,61.4882028 42.501513,60.8958993 L43.0127765,60.740789 C43.1770112,61.2863131 43.4147838,61.8061614 43.7187404,62.2859131 C44.8970978,64.1468855 46.988726,65.2748648 49.607726,65.4623338 C52.2564913,65.6508579 55.1206177,64.85772 57.6734336,63.2267752 L57.959531,63.6797959 C55.5698993,65.2069821 52.909578,66.0264993 50.3826755,66.0264993" id="Fill-180"></path>
                    <path d="M17.1153523,62.5391545 C16.6891827,62.5391545 16.2525076,62.5113683 15.807078,62.4547407 C13.0592116,62.1068855 10.2962874,60.7158166 8.02746787,58.5372372 L8.3969083,58.1489338 C10.5834354,60.2487269 13.2388542,61.5891476 15.8736123,61.9222303 C18.4779047,62.2510924 20.7488253,61.5550303 22.2658072,59.9603131 C22.6597603,59.5470372 22.9934823,59.0841683 23.2578686,58.5850717 L23.7299119,58.8365545 C23.4424137,59.3796166 23.0799769,59.8825821 22.6517061,60.3317338 C21.2775978,61.7755614 19.3439011,62.5391545 17.1153523,62.5391545" id="Fill-182"></path>
                    <path d="M32.0358083,71.4263793 C28.9717289,70.7426276 26.285144,69.2080552 24.4708588,67.1072069 C22.6369635,64.9831448 21.9106892,62.5337379 22.4254545,60.2106 C22.5585231,59.6070414 22.7735339,59.0249379 23.0645339,58.4801172 L23.5355267,58.7340621 C23.2676386,59.2359724 23.0697866,59.7712966 22.9472235,60.326669 C22.4699274,62.4799241 23.1541801,64.7633172 24.874617,66.7554828 C26.6143137,68.7701586 29.198996,70.2431793 32.1517181,70.9023103 L32.0358083,71.4263793 Z" id="Fill-184"></path>
                    <path d="M9.27305993,43.9851786 C6.96046787,43.9851786 4.77078917,42.7959993 3.09132347,40.6226959 C1.39294801,38.4258269 0.419096029,35.4794338 0.348709747,32.3272821 L0.882735018,32.3153234 C0.950670036,35.3531648 1.88495162,38.1870062 3.51329097,40.2938338 C5.12342094,42.3767441 7.2185509,43.4962821 9.41453285,43.446689 C9.9849769,43.4340269 10.5466664,43.3436338 11.0841935,43.1783234 L11.2410744,43.691489 C10.6562729,43.8715717 10.0459083,43.9697028 9.42608881,43.98342 C9.37531264,43.9844752 9.32418628,43.9851786 9.27305993,43.9851786" id="Fill-186"></path>
                    <path d="M8.25091805,58.4929552 C6.56619964,55.8332172 5.74642708,52.8403966 5.94287834,50.0656448 C6.14143069,47.2613483 7.35165451,45.013831 9.3511852,43.7367207 C9.87050289,43.4046931 10.4325426,43.1458241 11.0215462,42.9671483 L11.1759758,43.4806655 C10.6338964,43.6456241 10.1163296,43.8840931 9.63798303,44.1897414 C7.78517798,45.3732931 6.6621491,47.4734379 6.47585307,50.1039828 C6.28745596,52.7640724 7.07816354,55.6418793 8.70195054,58.2048931 L8.25091805,58.4929552 Z" id="Fill-188"></path>
                    <path d="M13.0723783,24.1120966 C12.5320498,23.8243862 12.0309415,23.46 11.583761,23.0298414 C9.87102816,21.385531 9.11989097,18.9438621 9.4697213,16.1546897 C9.81569964,13.3947103 11.2006635,10.6196069 13.3700318,8.34078621 L13.7562809,8.71185517 C11.6657032,10.9080207 10.3315155,13.5751448 9.99989458,16.2215172 C9.67212563,18.8379931 10.365483,21.117869 11.9532014,22.6418897 C12.3650137,23.0382828 12.8258513,23.3731241 13.3227574,23.6379724 L13.0723783,24.1120966 Z" id="Fill-190"></path>
                    <path d="M1.05936606,32.5711324 L0.537597112,32.4547117 C1.21904838,29.3771255 2.74618556,26.6790497 4.8381639,24.8567669 C6.95325415,23.0147876 9.39191119,22.28496 11.7048534,22.8034014 C12.3057632,22.9360014 12.8853119,23.15196 13.4273913,23.4445945 L13.1742108,23.9173117 C12.675904,23.6482428 12.1425791,23.4495186 11.5889437,23.3274703 C9.44443827,22.8473669 7.17176679,23.5346359 5.1883444,25.2623048 C3.18216029,27.0096703 1.71595451,29.6053945 1.05936606,32.5711324" id="Fill-192"></path>
                    <path d="M28.1510108,11.5686993 C27.9717184,10.9823752 27.8740181,10.3689683 27.8607112,9.7457131 C27.8067834,7.36665103 28.9945957,5.10717517 31.2056354,3.38302345 C33.393213,1.6775131 36.3266751,0.699016552 39.4646426,0.62832 L39.4765487,1.16505103 C36.4520397,1.23328552 33.6309856,2.17133379 31.5334043,3.80720276 C29.4596354,5.42407862 28.3450108,7.52879586 28.3947365,9.73375448 C28.407343,10.3077683 28.4969892,10.8719338 28.6619242,11.4114786 L28.1510108,11.5686993 Z" id="Fill-194"></path>
                    <path d="M28.3597884,11.5035952 C28.1973047,10.9601814 27.9598823,10.4406848 27.6545249,9.95917448 C26.4761675,8.09749862 24.3852397,6.96951931 21.7662397,6.78240207 C19.1178245,6.59317448 16.2529978,7.38736759 13.7012325,9.01831241 L13.4144347,8.56564345 C16.0621495,6.87279517 19.0414852,6.04940897 21.8044094,6.24707793 C24.5963986,6.44650552 26.834052,7.66241586 28.1055574,9.67111241 C28.4371783,10.1937745 28.6949112,10.7586434 28.8717523,11.3491883 L28.3597884,11.5035952 Z" id="Fill-196"></path>
                    <path d="M43.514165,11.6566303 L43.0022011,11.5022234 C43.1793924,10.9102717 43.4374755,10.3457545 43.7694466,9.82414759 C45.0406018,7.81615448 47.2786054,6.59989241 50.0705946,6.4001131 C52.8314177,6.20244414 55.8132047,7.02547862 58.4609195,8.7183269 L58.1737715,9.17099586 C55.6223563,7.54005103 52.75823,6.74761655 50.1087643,6.93543724 C47.4897643,7.12290621 45.3984863,8.25123724 44.2201289,10.1125614 C43.9144213,10.5930166 43.6773491,11.1121614 43.514165,11.6566303" id="Fill-198"></path>
                    <path d="M43.723783,11.7215234 L43.2128697,11.5643028 C43.3788552,11.0187786 43.4692018,10.4546131 43.4804076,9.88763379 C43.5301332,7.68162 42.4155087,5.57690276 40.3417397,3.95967517 C38.2438083,2.32380621 35.4227542,1.38540621 32.3985953,1.31752345 L32.4105014,0.780792414 C35.548469,0.851137241 38.4815809,1.82963379 40.6691585,3.53549586 C42.8801982,5.25964759 44.0687108,7.51947517 44.014783,9.89888897 C44.0021765,10.5151097 43.9044762,11.1281648 43.723783,11.7215234" id="Fill-200"></path>
                    <path d="M70.5614769,33.0356897 C69.9052386,30.0696 68.4386827,27.4738759 66.4324986,25.7268621 C64.4483758,23.9991931 62.1739534,23.3122759 60.0311989,23.7913241 C59.4772134,23.9140759 58.9438884,24.1124483 58.4452314,24.3811655 L58.1927513,23.9080966 C58.7344805,23.6161655 59.3140292,23.4005586 59.9156394,23.2672552 C62.2285816,22.749869 64.6675888,23.4796966 66.7823289,25.3213241 C68.8750076,27.1432552 70.4024949,29.8416828 71.083596,32.919269 L70.5614769,33.0356897 Z" id="Fill-202"></path>
                    <path d="M58.5488148,24.5763021 L58.2977354,24.1021779 C58.7981433,23.8348676 59.259331,23.4996745 59.6676415,23.1064469 C61.2557101,21.5820745 61.9490675,19.3021986 61.6212986,16.6857228 C61.2896776,14.0393503 59.9551397,11.3725779 57.8645621,9.17641241 L58.2508112,8.80569517 C60.4201794,11.0841641 61.8051433,13.8589159 62.1514718,16.6185434 C62.5013022,19.4080676 61.750165,21.8497366 60.0370819,23.4940469 C59.5934032,23.9213917 59.0926451,24.2857779 58.5488148,24.5763021" id="Fill-204"></path>
                    <path d="M62.9713845,58.9971869 L62.520352,58.7087731 C64.1444892,56.1457593 64.9348466,53.2683041 64.7457491,50.607511 C64.5594531,47.9769662 63.4357238,45.8768214 61.5825686,44.6929179 C61.1035217,44.3858628 60.5866552,44.1477455 60.0456264,43.9838421 L60.1997058,43.4699731 C60.7873087,43.6472421 61.3493484,43.9071662 61.8700668,44.240249 C63.8688971,45.5170076 65.0801715,47.7648766 65.279074,50.5691731 C65.4758755,53.3442766 64.6561029,56.3370972 62.9713845,58.9971869" id="Fill-206"></path>
                    <path d="M61.9499079,44.4885662 C61.8984314,44.4885662 61.8469549,44.4882145 61.7951282,44.4868076 C61.1784603,44.4734421 60.5680957,44.375311 59.9811931,44.1952283 L60.138074,43.681711 C60.6777022,43.8473731 61.2390415,43.9377662 61.8066841,43.9500766 C64.008269,44.0014283 66.0988466,42.8804834 67.7089765,40.7975731 C69.3369657,38.6907455 70.2712473,35.8576076 70.3391823,32.8197662 L70.8732076,32.8317248 C70.8028213,35.9838766 69.8289693,38.9295662 68.130944,41.1267869 C66.4518285,43.2993869 64.2617996,44.4885662 61.9499079,44.4885662" id="Fill-208"></path>
                    <path d="M38.8761292,71.6750483 L38.7598693,71.1509793 C41.7129415,70.4922 44.2969235,69.0191793 46.0366202,67.0038 C47.7567069,65.0112828 48.4413097,62.7282414 47.9636635,60.5746345 C47.8418007,60.0182069 47.6442989,59.482531 47.3764108,58.9816759 L47.8470534,58.727731 C48.1384036,59.2718483 48.3530643,59.8546552 48.4854325,60.4585655 C49.000548,62.7817034 48.2742736,65.2307586 46.4403783,67.3551724 C44.6260931,69.4570759 41.9395083,70.9912966 38.8761292,71.6750483" id="Fill-210"></path>
                    <path d="M53.7964101,62.7878234 C51.5678614,62.7878234 49.6341646,62.0242303 48.2604065,60.580051 C47.8352874,60.1354717 47.4725004,59.6321545 47.1825509,59.0852234 L47.654244,58.8330372 C47.9210816,59.3363545 48.2551538,59.7999269 48.6459552,60.2082786 C50.1632874,61.8036993 52.4321069,62.5011683 55.0388505,62.1708993 C57.6736087,61.8378166 60.3286773,60.4973959 62.5152043,58.3976028 L62.8842946,58.7852028 C60.6158253,60.9644855 57.8532513,62.3559062 55.105735,62.7037614 C54.6599552,62.760389 54.2225798,62.7878234 53.7964101,62.7878234" id="Fill-212"></path>
                    <path d="M20.4887462,65.8739917 C17.962544,65.8739917 15.3025729,65.0548262 12.912591,63.5279917 L13.199739,63.074971 C15.7522047,64.7059159 18.6159809,65.4987021 21.2654466,65.3098262 C23.8840964,65.1220055 25.9753744,63.9933228 27.1537318,62.1319986 C27.4604899,61.6494331 27.6979123,61.13064 27.8593455,60.5893366 L28.3709592,60.7437434 C28.1955188,61.3325297 27.9374357,61.8963434 27.6040639,62.4207641 C26.3332588,64.4287572 24.0952552,65.645371 21.3032661,65.8451503 C21.0336271,65.8644952 20.761887,65.8739917 20.4887462,65.8739917" id="Fill-214"></path>
                    <path d="M38.9636744,71.464471 C35.8250065,71.3937745 32.8918946,70.4152779 30.704317,68.7094159 C28.4932773,66.9856159 27.305465,64.7257883 27.359743,62.3463745 C27.3723495,61.7298021 27.4696996,61.1163952 27.6496924,60.5247952 L28.1606058,60.6816641 C27.9953206,61.2257814 27.9053242,61.7899469 27.8937682,62.3579814 C27.8436924,64.5636434 28.9579668,66.6687124 31.0320859,68.2855883 C33.1296671,69.9211055 35.9510715,70.8595055 38.9755805,70.9280917 L38.9636744,71.464471 Z" id="Fill-216"></path>
                    <path d="M9.99019458,49.1399772 C8.13633899,49.1399772 6.26322347,48.3791979 4.59181191,46.9241152 C2.49948339,45.1018324 0.971996029,42.4030531 0.290544765,39.3254669 L0.812313718,39.2090462 C1.46890217,42.1751359 2.93545812,44.7712117 4.94199242,46.5185772 C6.92576498,48.2458945 9.19808628,48.93246 11.3418913,48.4541152 C11.9004292,48.3292531 12.4341043,48.1308807 12.9278588,47.8639221 L13.1810394,48.3366393 C12.6442126,48.6271634 12.0643137,48.8424186 11.4581513,48.9781841 C10.9731513,49.0865152 10.4821982,49.1399772 9.99019458,49.1399772" id="Fill-218"></path>
                    <path d="M13.1229794,63.4404476 C10.9539614,61.1616269 9.56864729,58.3861717 9.22231877,55.6265441 C8.87248845,52.8373717 9.62327545,50.395351 11.3363585,48.7510407 C11.7768856,48.3272131 12.2776437,47.9628269 12.8242755,47.6687855 L13.0767556,48.1418545 C12.5728458,48.4130338 12.1116581,48.7485786 11.7057989,49.1386407 C10.1180805,50.6630131 9.42437292,52.9432407 9.75249206,55.5597166 C10.0844632,58.206089 11.4186509,60.8728614 13.5092285,63.0697303 L13.1229794,63.4404476 Z" id="Fill-220"></path>
                    <path d="M11.1742599,28.7748331 C10.5894585,28.598971 10.0274188,28.3397503 9.50389892,28.004909 C7.50471841,26.7274469 6.29379422,24.4799297 6.09524188,21.6756331 C5.89844043,18.9012331 6.71786282,15.9080607 8.40293141,13.2483228 L8.8539639,13.5363848 C7.22982671,16.1001021 6.43946931,18.9768538 6.62821661,21.6376469 C6.81451264,24.26784 7.9378917,26.3683366 9.79104693,27.5518883 C10.2728953,27.8607021 10.7897617,28.0988193 11.327639,28.2606124 L11.1742599,28.7748331 Z" id="Fill-222"></path>
                    <path d="M1.03474838,39.4258138 L0.500372924,39.4138552 C0.570759206,36.2620552 1.54461119,33.3163655 3.24263646,31.1187931 C4.9592213,28.8980069 7.2028278,27.7067172 9.57775199,27.758069 C10.1923188,27.7717862 10.8026834,27.8699172 11.3920372,28.0507034 L11.2362069,28.5642207 C10.6934271,28.3978552 10.1317375,28.3074621 9.56619603,28.2948 C7.36391083,28.2459103 5.27473394,29.3647448 3.66495415,31.4480069 C2.0366148,33.5551862 1.10268339,36.3883241 1.03474838,39.4258138" id="Fill-224"></path>
                    <path d="M23.5266671,13.5177786 C23.2370679,12.9782338 23.0224072,12.3957786 22.8879379,11.7865924 C22.3731726,9.46380621 23.0994469,7.01439931 24.9329921,4.89068897 C26.7469271,2.78878552 29.4338621,1.25491655 32.4979415,0.570813103 L32.6135011,1.09488207 C29.6604289,1.7540131 27.0764469,3.22703379 25.3367502,5.24206138 C23.6170137,7.23457862 22.9324108,9.51726828 23.4097069,11.6701717 C23.5336708,12.2311717 23.7311726,12.7671993 23.9973097,13.2631303 L23.5266671,13.5177786 Z" id="Fill-226"></path>
                    <path d="M8.85893646,13.8481883 L8.48949603,13.4602366 C10.7579653,11.2813055 13.5205394,9.8895331 16.2684058,9.54167793 C19.0453372,9.19030552 21.4769906,9.94440207 23.1133841,11.66574 C23.5378029,12.1103193 23.9005899,12.6132848 24.1908895,13.1602159 L23.7191964,13.4127538 C23.4520087,12.9094366 23.1182866,12.4462159 22.7274852,12.036809 C21.2101531,10.4413883 18.9413336,9.74497448 16.3352903,10.07454 C13.7001819,10.4076228 11.0451134,11.7480434 8.85893646,13.8481883" id="Fill-228"></path>
                    <path d="M66.7307123,19.8654497 C64.9941671,17.3777048 62.650409,15.5434634 60.1308603,14.7003807 C57.6407267,13.8671462 55.2787592,14.1056152 53.4809325,15.3725255 C53.0151924,15.6989255 52.5977773,16.087229 52.2395426,16.5272359 L51.8256292,16.1874703 C52.21503,15.7094772 52.6685137,15.2870566 53.1745245,14.9328703 C55.113474,13.5657186 57.6445787,13.3022772 60.2999975,14.1910841 C62.9270516,15.0700428 65.366409,16.9760359 67.1684379,19.5573393 L66.7307123,19.8654497 Z" id="Fill-230"></path>
                    <path d="M52.4088549,16.6674683 L51.9963422,16.3262959 C52.3573783,15.886289 52.6553819,15.3995028 52.8829993,14.878951 C53.7696563,12.8607579 53.5416888,10.4873234 52.2414686,8.19619241 C50.9265408,5.87868207 48.6780318,3.92766828 45.9105552,2.7026131 L46.1255661,2.21160621 C48.9977466,3.48238552 51.3348513,5.51324069 52.7061581,7.93028897 C54.0918224,10.3733648 54.3285444,12.9177372 53.3722014,15.0952614 C53.1253242,15.6604821 52.801057,16.1894752 52.4088549,16.6674683" id="Fill-232"></path>
                    <path d="M69.6092661,46.7678793 L69.0825946,46.6750241 C69.6068148,43.6829069 69.2412264,40.7210379 68.0527137,38.3352931 C66.8785585,35.9769828 65.040461,34.4680862 62.877396,34.0868172 C62.3185079,33.9879828 61.750165,33.9658241 61.1860242,34.0221 L61.1334971,33.4885345 C61.7456126,33.4269828 62.3636812,33.4505483 62.970544,33.5585276 C65.3037968,33.9696931 67.2788148,35.5805897 68.5310603,38.0954172 C69.7699989,40.5831621 70.1527462,43.6632103 69.6092661,46.7678793" id="Fill-234"></path>
                    <path d="M61.2080155,34.2418221 L61.1561888,33.7075531 C61.7199794,33.6523324 62.2736148,33.5200841 62.8020372,33.3139738 C64.8495426,32.5166152 66.3591708,30.6767462 67.0528783,28.1330772 C67.7546401,25.5605669 67.5378783,22.5839255 66.4425137,19.751491 L66.9408206,19.5573393 C68.0771563,22.4959945 68.3002213,25.5918703 67.568344,28.2751738 C66.8284126,30.9869669 65.2046256,32.95416 62.9953368,33.814829 C62.421391,34.0381738 61.820131,34.182029 61.2080155,34.2418221" id="Fill-236"></path>
                    <path d="M52.1794166,67.7432297 L51.8726585,67.3035745 C54.3494852,65.5593745 56.1753264,63.2049331 57.0150592,60.6739262 C57.8446368,58.1724641 57.6072144,55.8000848 56.3462144,53.9943331 C56.0191458,53.5258366 55.6328968,53.1062297 55.1965718,52.7481745 L55.5348462,52.3327883 C56.0089906,52.7217952 56.4292072,53.1776297 56.7835899,53.6865745 C58.1443913,55.6344228 58.4063264,58.1763331 57.5217704,60.843809 C56.6463191,63.4831469 54.7490412,65.9332572 52.1794166,67.7432297" id="Fill-238"></path>
                    <path d="M59.3963917,54.46596 C58.4323448,54.46596 57.4973628,54.2735669 56.6215614,53.8852634 C56.0591715,53.6369462 55.5325,53.3119531 55.0562545,52.919429 L55.3952292,52.5047462 C55.8340054,52.8659669 56.3190054,53.1656359 56.8369224,53.3942566 C58.8459079,54.2837669 61.2096264,54.0562014 63.490352,52.7502497 C65.7976913,51.4295255 67.7401426,49.1707531 68.9598213,46.3900221 L69.4486733,46.6063324 C68.1831209,49.4911738 66.1611787,51.8392841 63.7554386,53.2166359 C62.3053412,54.0463531 60.8191751,54.46596 59.3963917,54.46596" id="Fill-240"></path>
                    <path d="M27.817569,70.4361 C26.9190058,70.4361 26.0043343,70.3559069 25.0872116,70.1941138 L25.1796592,69.6654724 C28.1593451,70.1913 31.1085653,69.8237483 33.4834895,68.6307 C35.8318,67.4517207 37.3340744,65.605169 37.7133199,63.432569 C37.8124209,62.8705138 37.8337819,62.2993138 37.7770527,61.7347966 L38.3089769,61.680631 C38.3706087,62.2947414 38.3474968,62.9155345 38.2396412,63.5261276 C37.8306303,65.8700172 36.2261032,67.8530379 33.7226628,69.1108034 C31.9805148,69.9855414 29.9466664,70.4357483 27.817569,70.4361" id="Fill-242"></path>
                    <path d="M46.7493776,68.5689372 C45.6266989,68.5689372 44.532735,68.4285993 43.4993523,68.1440545 C40.7994606,67.4012131 38.8409011,65.7695648 37.9840094,63.5505372 C37.7609444,62.97582 37.6180708,62.3712062 37.5585401,61.7553372 L38.0908144,61.7039855 C38.1454426,62.2709648 38.2771105,62.8270407 38.4823162,63.3563855 C39.2761755,65.4129166 41.1083199,66.9291993 43.6408253,67.6263166 C46.2023957,68.3318752 49.1659733,68.1138062 51.9852765,67.0139648 L52.1789264,67.51482 C50.3846014,68.2140476 48.531096,68.5689372 46.7493776,68.5689372" id="Fill-244"></path>
                    <path d="M14.0876917,58.5705807 C13.120143,58.5705807 12.1067206,58.3996428 11.0740383,58.0535462 C8.44663394,57.1745876 6.00727653,55.2689462 4.20489747,52.6869393 L4.6426231,52.378829 C6.37951841,54.8672772 8.72327653,56.7018703 11.2428253,57.5446014 C13.7336592,58.3774841 16.0956267,58.1393669 17.8934534,56.8724566 C18.3616448,56.5432428 18.7787097,56.155291 19.1330924,55.7188014 L19.5477061,56.0575117 C19.1621574,56.532691 18.7086736,56.9544083 18.1998614,57.3121117 C17.0145004,58.1474566 15.6081755,58.5705807 14.0876917,58.5705807" id="Fill-246"></path>
                    <path d="M25.2485047,70.0335517 C22.3763242,68.7624207 20.0392195,66.7312138 18.6679126,64.314869 C17.2818982,61.8724966 17.0451762,59.3281241 18.0018693,57.1498966 C18.2494469,56.583269 18.5733639,56.0539241 18.9641653,55.5773379 L19.376678,55.9188621 C19.0170426,56.3571103 18.719039,56.8442483 18.4910715,57.3662069 C17.6044144,59.3851034 17.8320318,61.7578345 19.132252,64.0489655 C20.4471798,66.3661241 22.6956888,68.3171379 25.4642159,69.5425448 L25.2485047,70.0335517 Z" id="Fill-248"></path>
                    <path d="M9.57211408,38.7902131 C9.18271336,38.7902131 8.79191191,38.7557441 8.40356173,38.6864545 C6.07030903,38.2749372 4.09564116,36.6640407 2.84339567,34.1495648 C1.60445704,31.6614683 1.22135957,28.5810683 1.76448953,25.4756959 L2.29081083,25.568551 C1.76729097,28.5613717 2.1332296,31.5235924 3.32139206,33.9093372 C4.49589747,36.2676476 6.33364477,37.7768959 8.49635957,38.1578131 C9.05944982,38.2580545 9.62814296,38.2791579 10.1859805,38.2218269 L10.2406087,38.7557441 C10.0189444,38.7789579 9.79587942,38.7902131 9.57211408,38.7902131" id="Fill-250"></path>
                    <path d="M4.43293502,52.6874317 C3.29694946,49.7480731 3.07423466,46.6514938 3.80576173,43.9692455 C4.54499278,41.2574524 6.16912996,39.290611 8.37841877,38.4295903 C8.95061372,38.206949 9.55187365,38.0623903 10.1660903,38.0025972 L10.217917,38.5368662 C9.65272563,38.5920869 9.09874007,38.7246869 8.57171841,38.9307972 C6.524213,39.7278041 5.01458484,41.5676731 4.32122744,44.1113421 C3.61981588,46.6838524 3.83657762,49.6604938 4.93124188,52.4936317 L4.43293502,52.6874317 Z" id="Fill-252"></path>
                    <path d="M15.8394697,19.9118421 C15.3656755,19.5231869 14.9451087,19.0677041 14.5903758,18.5587593 C13.2292242,16.6102076 12.9672892,14.0682972 13.8518451,11.4011731 C14.7272964,8.7621869 16.6249245,6.31207655 19.1952495,4.50210414 L19.5016574,4.94175931 C17.0248307,6.68595931 15.1982892,9.04040069 14.3589065,11.5707041 C13.5289787,14.0725179 13.7667513,16.4448972 15.0277513,18.250649 C15.35517,18.7194972 15.7417693,19.1387524 16.1773939,19.4961041 L15.8394697,19.9118421 Z" id="Fill-254"></path>
                    <path d="M2.41410939,25.8543972 L1.9252574,25.6380869 C3.19080975,22.7528938 5.21310217,20.4058386 7.61884224,19.0284869 C10.0508458,17.6367145 12.5844018,17.3993007 14.7523693,18.3598593 C15.3154596,18.6085283 15.842131,18.9335214 16.3169758,19.3263972 L15.9773007,19.7403766 C15.5406256,19.3791559 15.0556256,19.0801903 14.5370083,18.8512179 C12.5276726,17.9606524 10.1646545,18.1892731 7.8835787,19.4948731 C5.57623935,20.8155972 3.63413827,23.0740179 2.41410939,25.8543972" id="Fill-256"></path>
                    <path d="M33.0649888,10.5639993 C33.003357,9.95516483 33.026469,9.33472345 33.1336242,8.71920621 C33.5433354,6.37496483 35.1475123,4.39159241 37.6513029,3.13417862 C40.1284798,1.8894269 43.1950105,1.50499241 46.286404,2.05086828 L46.1939563,2.57950966 C43.2142704,2.05333034 40.2657505,2.42088207 37.890126,3.61428207 C35.5421657,4.7936131 34.0398913,6.6398131 33.6602957,8.81170966 C33.5611946,9.37868897 33.5398336,9.94988897 33.5965628,10.5098338 L33.0649888,10.5639993 Z" id="Fill-258"></path>
                    <path d="M33.282661,10.5408207 C33.2280329,9.97384138 33.096365,9.41776552 32.890809,8.88842069 C32.0965996,6.83188966 30.2644552,5.3156069 27.7323,4.61884138 C25.1710798,3.91398621 22.2078523,4.13170345 19.3878487,5.2311931 L19.1945491,4.73068966 C22.1203072,3.58969655 25.2029462,3.36635172 27.8734227,4.10110345 C30.5733144,4.84394483 32.5322242,6.47524138 33.3887657,8.69426897 C33.6118307,9.26898621 33.7554047,9.87289655 33.8145852,10.4891172 L33.282661,10.5408207 Z" id="Fill-260"></path>
                    <path d="M35.6870704,1.17736138 C16.5024314,1.17736138 0.894886282,16.8540579 0.894886282,36.1229131 C0.894886282,55.39212 16.5024314,71.0688166 35.6870704,71.0688166 C54.8713592,71.0688166 70.4789043,55.39212 70.4789043,36.1229131 C70.4789043,16.8540579 54.8713592,1.17736138 35.6870704,1.17736138 M35.6870704,71.9002924 C16.0461462,71.9002924 0.0667093863,55.8507683 0.0667093863,36.1229131 C0.0667093863,16.3954097 16.0461462,0.345533793 35.6870704,0.345533793 C55.3279946,0.345533793 71.3070812,16.3954097 71.3070812,36.1229131 C71.3070812,55.8507683 55.3279946,71.9002924 35.6870704,71.9002924" id="Fill-262"></path>
                    <path d="M35.6867202,10.8015186 C21.7856047,10.8015186 10.4765253,22.1608014 10.4765253,36.1231945 C10.4765253,50.0855876 21.7856047,61.4448703 35.6867202,61.4448703 C49.5878357,61.4448703 60.8969152,50.0855876 60.8969152,36.1231945 C60.8969152,22.1608014 49.5878357,10.8015186 35.6867202,10.8015186 M35.6867202,62.2766979 C21.3289693,62.2766979 9.64834838,50.5442359 9.64834838,36.1231945 C9.64834838,21.7021531 21.3289693,9.96969103 35.6867202,9.96969103 C50.0444711,9.96969103 61.7250921,21.7021531 61.7250921,36.1231945 C61.7250921,50.5442359 50.0444711,62.2766979 35.6867202,62.2766979" id="Fill-264"></path>
                    <path d="M35.6867202,13.4528503 C23.2409549,13.4528503 13.1154856,23.6226021 13.1154856,36.1228779 C13.1154856,48.6238572 23.2409549,58.7939607 35.6867202,58.7939607 C48.1324856,58.7939607 58.2579549,48.6238572 58.2579549,36.1228779 C58.2579549,23.6226021 48.1324856,13.4528503 35.6867202,13.4528503 M35.6867202,59.6257883 C22.7843195,59.6257883 12.2876588,49.0825055 12.2876588,36.1228779 C12.2876588,23.1639538 22.7843195,12.6210228 35.6867202,12.6210228 C48.5887708,12.6210228 59.0861318,23.1639538 59.0861318,36.1228779 C59.0861318,49.0825055 48.5887708,59.6257883 35.6867202,59.6257883" id="Fill-266"></path>
                </g>
                <g id="Group-274" transform="translate(0.000000, 0.118883)">
                    <path d="M38.6433989,1.06470414 C18.2376805,1.06470414 1.63702347,17.7385386 1.63702347,38.2331524 C1.63702347,58.7284697 18.2376805,75.4030076 38.6433989,75.4030076 C59.0487671,75.4030076 75.6494242,58.7284697 75.6494242,38.2331524 C75.6494242,17.7385386 59.0487671,1.06470414 38.6433989,1.06470414 M38.6433989,76.2341317 C17.7813953,76.2341317 0.80884657,59.1867662 0.80884657,38.2331524 C0.80884657,17.2798903 17.7813953,0.232876552 38.6433989,0.232876552 C59.5050523,0.232876552 76.4776011,17.2798903 76.4776011,38.2331524 C76.4776011,59.1867662 59.5050523,76.2341317 38.6433989,76.2341317" id="Fill-269"></path>
                </g>
            </g>
        </g>
    </g>
</svg>